<?xml version="1.0" encoding="UTF-8"?>
<svg xmlns="http://www.w3.org/2000/svg" xmlns:xlink="http://www.w3.org/1999/xlink" width="125pt" height="150pt" viewBox="0 0 125 150" version="1.1">
<defs>
<linearGradient id="linear0" gradientUnits="userSpaceOnUse" x1="-259.55" y1="104.53" x2="-174.09" y2="44.205" gradientTransform="matrix(0.944882,0,0,0.944882,255.373222,-23.769163)">
<stop offset="0" style="stop-color:rgb(96.470588%,66.666667%,47.058824%);stop-opacity:1;"/>
<stop offset="1" style="stop-color:rgb(96.078431%,45.098039%,53.72549%);stop-opacity:1;"/>
</linearGradient>
<linearGradient id="linear1" gradientUnits="userSpaceOnUse" x1="-259.55" y1="104.53" x2="-174.09" y2="44.205" gradientTransform="matrix(0.944882,0,0,0.944882,255.726778,-24.564631)">
<stop offset="0" style="stop-color:rgb(96.470588%,66.666667%,47.058824%);stop-opacity:1;"/>
<stop offset="1" style="stop-color:rgb(96.078431%,45.098039%,53.72549%);stop-opacity:1;"/>
</linearGradient>
<linearGradient id="linear2" gradientUnits="userSpaceOnUse" x1="-259.55" y1="104.53" x2="-174.09" y2="44.205" gradientTransform="matrix(0.944882,0,0,0.944882,255.373222,-23.769163)">
<stop offset="0" style="stop-color:rgb(96.470588%,66.666667%,47.058824%);stop-opacity:1;"/>
<stop offset="1" style="stop-color:rgb(96.078431%,45.098039%,53.72549%);stop-opacity:1;"/>
</linearGradient>
<linearGradient id="linear3" gradientUnits="userSpaceOnUse" x1="-259.55" y1="104.53" x2="-174.09" y2="44.205" gradientTransform="matrix(0.944882,0,0,0.944882,254.842888,-24.034297)">
<stop offset="0" style="stop-color:rgb(96.470588%,66.666667%,47.058824%);stop-opacity:1;"/>
<stop offset="1" style="stop-color:rgb(96.078431%,45.098039%,53.72549%);stop-opacity:1;"/>
</linearGradient>
<linearGradient id="linear4" gradientUnits="userSpaceOnUse" x1="-261.8" y1="198.19" x2="-166.28" y2="152.5" gradientTransform="matrix(0.944882,0,0,0.944882,255.373234,-23.769163)">
<stop offset="0" style="stop-color:rgb(96.470588%,66.666667%,47.058824%);stop-opacity:1;"/>
<stop offset="1" style="stop-color:rgb(96.078431%,45.098039%,53.72549%);stop-opacity:1;"/>
</linearGradient>
<linearGradient id="linear5" gradientUnits="userSpaceOnUse" x1="-259.55" y1="104.53" x2="-174.09" y2="44.205" gradientTransform="matrix(0.944882,0,0,0.944882,255.373222,-23.769163)">
<stop offset="0" style="stop-color:rgb(96.470588%,66.666667%,47.058824%);stop-opacity:1;"/>
<stop offset="1" style="stop-color:rgb(96.078431%,45.098039%,53.72549%);stop-opacity:1;"/>
</linearGradient>
<linearGradient id="linear6" gradientUnits="userSpaceOnUse" x1="-259.55" y1="104.53" x2="-174.09" y2="44.205" gradientTransform="matrix(0.944882,0,0,0.944882,255.373222,-23.769163)">
<stop offset="0" style="stop-color:rgb(96.470588%,66.666667%,47.058824%);stop-opacity:1;"/>
<stop offset="1" style="stop-color:rgb(96.078431%,45.098039%,53.72549%);stop-opacity:1;"/>
</linearGradient>
<linearGradient id="linear7" gradientUnits="userSpaceOnUse" x1="-259.55" y1="104.53" x2="-174.09" y2="44.205" gradientTransform="matrix(0.944882,0,0,0.944882,255.373222,-23.769163)">
<stop offset="0" style="stop-color:rgb(96.470588%,66.666667%,47.058824%);stop-opacity:1;"/>
<stop offset="1" style="stop-color:rgb(96.078431%,45.098039%,53.72549%);stop-opacity:1;"/>
</linearGradient>
<linearGradient id="linear8" gradientUnits="userSpaceOnUse" x1="-259.55" y1="104.53" x2="-174.09" y2="44.205" gradientTransform="matrix(0.944882,0,0,0.944882,255.373222,-23.769163)">
<stop offset="0" style="stop-color:rgb(96.470588%,66.666667%,47.058824%);stop-opacity:1;"/>
<stop offset="1" style="stop-color:rgb(96.078431%,45.098039%,53.72549%);stop-opacity:1;"/>
</linearGradient>
<linearGradient id="linear9" gradientUnits="userSpaceOnUse" x1="-259.55" y1="104.53" x2="-174.09" y2="44.205" gradientTransform="matrix(0.944882,0,0,0.944882,255.373222,-23.769163)">
<stop offset="0" style="stop-color:rgb(96.470588%,66.666667%,47.058824%);stop-opacity:1;"/>
<stop offset="1" style="stop-color:rgb(96.078431%,45.098039%,53.72549%);stop-opacity:1;"/>
</linearGradient>
<linearGradient id="linear10" gradientUnits="userSpaceOnUse" x1="-255.58" y1="180.19" x2="-216.95" y2="155.4" gradientTransform="matrix(0.944882,0,0,0.944882,254.754504,-24.219701)">
<stop offset="0" style="stop-color:rgb(96.470588%,66.666667%,47.058824%);stop-opacity:1;"/>
<stop offset="1" style="stop-color:rgb(96.078431%,45.098039%,53.72549%);stop-opacity:1;"/>
</linearGradient>
<linearGradient id="linear11" gradientUnits="userSpaceOnUse" x1="-255.58" y1="180.19" x2="-216.95" y2="155.4" gradientTransform="matrix(0.944882,0,0,0.944882,254.754504,-24.219701)">
<stop offset="0" style="stop-color:rgb(96.470588%,66.666667%,47.058824%);stop-opacity:1;"/>
<stop offset="1" style="stop-color:rgb(96.078431%,45.098039%,53.72549%);stop-opacity:1;"/>
</linearGradient>
<linearGradient id="linear12" gradientUnits="userSpaceOnUse" x1="-255.58" y1="180.19" x2="-216.95" y2="155.4" gradientTransform="matrix(0.944882,0,0,0.944882,254.754504,-24.219701)">
<stop offset="0" style="stop-color:rgb(96.470588%,66.666667%,47.058824%);stop-opacity:1;"/>
<stop offset="1" style="stop-color:rgb(96.078431%,45.098039%,53.72549%);stop-opacity:1;"/>
</linearGradient>
</defs>
<g id="surface1">
<path style=" stroke:none;fill-rule:nonzero;fill:url(#linear0);" d="M 35.234375 34.195312 C 34.414062 34.195312 33.746094 34.863281 33.746094 35.683594 C 33.746094 36.3125 34.144531 36.875 34.738281 37.085938 L 34.738281 37.171875 L 33.746094 37.171875 L 33.746094 38.164062 L 34.738281 38.164062 L 34.738281 40.097656 C 33.820312 39.910156 33.082031 39.214844 32.839844 38.308594 L 31.882812 38.566406 C 32.289062 40.082031 33.664062 41.140625 35.234375 41.140625 C 36.804688 41.140625 38.179688 40.082031 38.589844 38.566406 L 37.628906 38.308594 C 37.382812 39.214844 36.648438 39.90625 35.730469 40.09375 L 35.730469 38.164062 L 36.722656 38.164062 L 36.722656 37.171875 L 35.730469 37.171875 L 35.730469 37.082031 C 36.324219 36.875 36.722656 36.3125 36.722656 35.683594 C 36.722656 34.863281 36.054688 34.195312 35.234375 34.195312 Z M 35.234375 35.1875 C 35.507812 35.1875 35.730469 35.410156 35.730469 35.683594 C 35.730469 35.957031 35.507812 36.179688 35.234375 36.179688 C 34.960938 36.179688 34.738281 35.957031 34.738281 35.683594 C 34.738281 35.410156 34.960938 35.1875 35.234375 35.1875 Z M 35.234375 35.1875 "/>
<path style=" stroke:none;fill-rule:nonzero;fill:url(#linear1);" d="M 35.519531 5.238281 C 35.109375 5.238281 34.777344 5.570312 34.777344 5.980469 L 34.777344 6.351562 L 39.96875 6.351562 L 39.96875 5.980469 C 39.96875 5.570312 39.636719 5.238281 39.226562 5.238281 Z M 38.855469 5.609375 L 39.226562 5.609375 L 39.226562 5.980469 L 38.855469 5.980469 Z M 34.777344 6.722656 L 34.777344 9.691406 C 34.777344 10.101562 35.109375 10.433594 35.519531 10.433594 L 39.226562 10.433594 C 39.636719 10.433594 39.96875 10.101562 39.96875 9.691406 L 39.96875 6.722656 Z M 38.289062 7.332031 L 38.816406 7.855469 L 36.980469 9.691406 L 35.929688 8.640625 L 36.453125 8.117188 L 36.980469 8.640625 Z M 38.289062 7.332031 "/>
<path style=" stroke:none;fill-rule:nonzero;fill:rgb(96.470588%,66.666667%,47.058824%);fill-opacity:1;" d="M 24.566406 16.515625 L 24.566406 22.582031 L 25.074219 22.582031 L 25.074219 21.714844 L 25.867188 21.714844 L 25.867188 22.582031 L 29.335938 22.582031 L 29.335938 21.714844 L 30.203125 21.714844 L 30.203125 22.582031 L 30.636719 22.582031 L 30.636719 16.515625 L 30.203125 16.515625 L 30.203125 17.382812 L 29.335938 17.382812 L 29.335938 16.515625 L 25.867188 16.515625 L 25.867188 17.382812 L 25.074219 17.382812 L 25.074219 16.515625 Z M 26.300781 17.816406 L 27.167969 17.816406 L 27.167969 18.683594 L 28.902344 18.683594 L 28.902344 19.550781 L 28.035156 19.550781 L 28.035156 20.414062 L 28.902344 20.414062 L 28.902344 21.28125 L 27.601562 21.28125 C 27.363281 21.28125 27.167969 21.089844 27.167969 20.847656 L 27.167969 19.550781 L 26.734375 19.550781 C 26.496094 19.550781 26.300781 19.355469 26.300781 19.117188 Z M 25.074219 18.25 L 25.867188 18.25 L 25.867188 19.117188 L 25.074219 19.117188 Z M 29.335938 18.25 L 30.203125 18.25 L 30.203125 19.117188 L 29.335938 19.117188 Z M 25.074219 19.980469 L 25.867188 19.980469 L 25.867188 20.847656 L 25.074219 20.847656 Z M 29.335938 19.980469 L 30.203125 19.980469 L 30.203125 20.847656 L 29.335938 20.847656 Z M 29.335938 19.980469 "/>
<path style=" stroke:none;fill-rule:nonzero;fill:rgb(47.058824%,89.803922%,96.470588%);fill-opacity:1;" d="M 74.890625 63.453125 L 72.757812 64.304688 L 72.757812 69.425781 L 74.890625 68.570312 L 76.597656 69.425781 L 78.730469 68.570312 L 78.730469 63.453125 L 76.597656 64.304688 Z M 74.890625 64.304688 L 76.597656 65.160156 L 76.597656 68.570312 L 74.890625 67.71875 Z M 74.890625 64.304688 "/>
<path style=" stroke:none;fill-rule:nonzero;fill:rgb(47.058824%,89.803922%,96.470588%);fill-opacity:1;" d="M 49.484375 15.597656 C 48.402344 15.597656 47.527344 16.472656 47.527344 17.554688 L 47.527344 18.859375 L 44.917969 18.859375 L 44.917969 23.421875 C 44.917969 24.148438 45.5 24.726562 46.222656 24.726562 L 52.746094 24.726562 C 53.46875 24.726562 54.050781 24.148438 54.050781 23.421875 L 54.050781 18.859375 L 51.441406 18.859375 L 51.441406 17.554688 C 51.441406 16.472656 50.5625 15.597656 49.484375 15.597656 Z M 49.484375 16.902344 C 49.84375 16.902344 50.136719 17.191406 50.136719 17.554688 L 50.136719 18.859375 L 48.832031 18.859375 L 48.832031 17.554688 C 48.832031 17.191406 49.125 16.902344 49.484375 16.902344 Z M 49.484375 16.902344 "/>
<path style=" stroke:none;fill-rule:nonzero;fill:rgb(100%,55.686275%,52.941176%);fill-opacity:0.968627;" d="M 67.078125 30.550781 L 67.078125 31.539062 L 73.027344 31.539062 L 73.027344 30.550781 Z M 66.582031 32.035156 L 66.582031 36.5 C 66.582031 37.046875 67.023438 37.492188 67.574219 37.492188 L 72.53125 37.492188 C 73.082031 37.492188 73.523438 37.046875 73.523438 36.5 L 73.523438 32.035156 Z M 67.574219 32.53125 L 68.070312 32.53125 L 68.070312 33.027344 L 67.574219 33.027344 Z M 69.0625 32.53125 L 69.558594 32.53125 L 69.558594 33.027344 L 69.0625 33.027344 Z M 70.550781 32.53125 L 71.042969 32.53125 L 71.042969 33.027344 L 70.550781 33.027344 Z M 72.035156 32.53125 L 72.53125 32.53125 L 72.53125 33.027344 L 72.035156 33.027344 Z M 67.574219 33.523438 L 72.53125 33.523438 L 72.53125 36.5 L 67.574219 36.5 Z M 69.0625 34.019531 L 69.0625 34.515625 L 71.042969 34.515625 L 71.042969 34.019531 Z M 69.0625 34.019531 "/>
<path style=" stroke:none;fill-rule:nonzero;fill:rgb(40.392157%,55.686275%,90.196078%);fill-opacity:1;" d="M 60.757812 14.398438 L 60.757812 15.363281 L 62.003906 15.363281 L 60.273438 17.09375 L 58.203125 15.019531 L 57.519531 15.703125 L 59.589844 17.777344 L 57.519531 19.847656 L 58.203125 20.53125 L 60.273438 18.457031 L 62.003906 20.1875 L 60.757812 20.1875 L 60.757812 21.15625 L 63.167969 21.15625 C 63.4375 21.152344 63.652344 20.9375 63.652344 20.671875 L 63.652344 18.257812 L 62.6875 18.257812 L 62.6875 19.507812 L 60.957031 17.777344 L 62.6875 16.046875 L 62.6875 17.292969 L 63.652344 17.292969 L 63.652344 14.878906 C 63.652344 14.613281 63.4375 14.398438 63.167969 14.398438 Z M 60.757812 14.398438 "/>
<path style=" stroke:none;fill-rule:nonzero;fill:url(#linear2);" d="M 84.339844 33.691406 C 83.175781 33.691406 82.207031 34.589844 82.121094 35.753906 C 81.710938 35.382812 81.179688 35.175781 80.625 35.175781 C 79.394531 35.175781 78.398438 36.171875 78.398438 37.402344 C 78.398438 38.347656 78.996094 39.1875 79.882812 39.5 L 79.882812 41.117188 C 79.882812 41.527344 80.214844 41.859375 80.625 41.859375 L 85.082031 41.859375 C 85.496094 41.859375 85.824219 41.527344 85.824219 41.117188 L 85.824219 40.375 L 88.054688 41.859375 L 88.054688 37.402344 L 85.824219 38.886719 L 85.824219 37.574219 C 86.296875 37.152344 86.566406 36.550781 86.566406 35.917969 C 86.566406 34.6875 85.570312 33.691406 84.339844 33.691406 Z M 84.339844 33.691406 "/>
<path style=" stroke:none;fill-rule:nonzero;fill:rgb(40.392157%,55.686275%,90.196078%);fill-opacity:1;" d="M 27.570312 26.425781 L 27.570312 27.980469 L 26.855469 27.5 L 26.304688 28.328125 L 27.792969 29.320312 C 27.960938 29.429688 28.175781 29.429688 28.34375 29.320312 L 29.832031 28.328125 L 29.28125 27.5 L 28.5625 27.980469 L 28.5625 26.425781 Z M 26.828125 30.394531 C 26.414062 30.394531 26.082031 30.726562 26.082031 31.136719 L 26.082031 31.882812 L 25.09375 31.882812 L 25.09375 32.875 L 31.042969 32.875 L 31.042969 31.882812 L 30.050781 31.882812 L 30.050781 31.136719 C 30.050781 30.726562 29.71875 30.394531 29.308594 30.394531 Z M 26.828125 30.394531 "/>
<path style=" stroke:none;fill-rule:nonzero;fill:rgb(97.254902%,53.333333%,52.54902%);fill-opacity:1;" d="M 67.917969 7.769531 C 67.367188 7.769531 66.925781 8.210938 66.925781 8.761719 L 66.925781 9.75 L 66.429688 9.75 L 66.429688 10.742188 L 66.925781 10.742188 L 66.925781 13.222656 C 66.925781 13.578125 67.117188 13.902344 67.421875 14.082031 L 67.421875 14.710938 L 68.414062 14.710938 L 68.414062 14.082031 C 68.722656 13.90625 68.910156 13.578125 68.910156 13.222656 L 68.910156 10.742188 L 69.40625 10.742188 L 69.40625 9.75 L 68.910156 9.75 L 68.910156 8.761719 C 68.910156 8.210938 68.46875 7.769531 67.917969 7.769531 Z M 67.421875 10.742188 L 68.414062 10.742188 L 68.414062 13.222656 C 68.414062 13.496094 68.191406 13.71875 67.917969 13.71875 C 67.644531 13.71875 67.421875 13.496094 67.421875 13.222656 Z M 67.421875 10.742188 "/>
<path style=" stroke:none;fill-rule:nonzero;fill:rgb(54.509804%,42.352941%,88.235294%);fill-opacity:1;" d="M 55.007812 6.089844 C 54.867188 6.089844 54.730469 6.144531 54.632812 6.246094 L 52.496094 8.378906 C 52.289062 8.589844 52.289062 8.925781 52.496094 9.136719 L 54.632812 11.269531 C 54.730469 11.371094 54.867188 11.425781 55.007812 11.425781 L 59.28125 11.425781 C 59.574219 11.425781 59.8125 11.1875 59.8125 10.894531 L 59.8125 6.621094 C 59.8125 6.328125 59.574219 6.089844 59.28125 6.089844 Z M 54.476562 8.222656 C 54.769531 8.222656 55.007812 8.464844 55.007812 8.757812 C 55.007812 9.054688 54.769531 9.292969 54.476562 9.292969 C 54.179688 9.292969 53.941406 9.054688 53.941406 8.757812 C 53.941406 8.464844 54.179688 8.222656 54.476562 8.222656 Z M 107.574219 28.339844 L 105.054688 30.859375 L 107.574219 33.378906 L 110.09375 30.859375 Z M 107.574219 29.675781 L 108.757812 30.859375 L 107.574219 32.042969 L 106.390625 30.859375 Z M 23.914062 39.050781 L 22.1875 40.777344 L 23.914062 42.507812 L 25.640625 40.777344 Z M 35.257812 44.722656 C 34.199219 44.722656 33.21875 45.289062 32.6875 46.207031 C 32.585938 46.382812 32.648438 46.609375 32.824219 46.710938 C 32.910156 46.761719 33.011719 46.773438 33.105469 46.75 C 33.203125 46.722656 33.28125 46.660156 33.332031 46.574219 C 33.730469 45.886719 34.460938 45.464844 35.257812 45.464844 C 36.054688 45.464844 36.785156 45.886719 37.183594 46.574219 C 37.234375 46.660156 37.316406 46.722656 37.410156 46.75 C 37.503906 46.773438 37.605469 46.761719 37.691406 46.710938 C 37.867188 46.609375 37.929688 46.382812 37.828125 46.207031 C 37.296875 45.289062 36.316406 44.722656 35.257812 44.722656 Z M 35.257812 46.207031 C 34.589844 46.207031 34 46.65625 33.824219 47.304688 C 33.773438 47.503906 33.890625 47.707031 34.085938 47.757812 C 34.285156 47.8125 34.488281 47.695312 34.542969 47.496094 C 34.628906 47.171875 34.921875 46.945312 35.257812 46.945312 C 35.59375 46.945312 35.886719 47.171875 35.972656 47.496094 C 36.027344 47.695312 36.230469 47.8125 36.429688 47.757812 C 36.625 47.707031 36.742188 47.503906 36.691406 47.304688 C 36.515625 46.65625 35.925781 46.207031 35.257812 46.207031 Z M 35.257812 47.6875 C 35.050781 47.6875 34.886719 47.855469 34.886719 48.058594 L 34.886719 48.429688 L 33.773438 48.429688 C 33.773438 48.960938 34.058594 49.449219 34.515625 49.714844 C 34.976562 49.980469 35.539062 49.980469 36 49.714844 C 36.457031 49.449219 36.742188 48.960938 36.742188 48.429688 L 35.628906 48.429688 L 35.628906 48.058594 C 35.628906 47.855469 35.464844 47.6875 35.257812 47.6875 Z M 65.890625 61.359375 C 65.605469 61.359375 65.371094 61.589844 65.371094 61.878906 L 65.371094 62.921875 L 67.453125 62.921875 L 67.453125 61.878906 C 67.453125 61.589844 67.222656 61.359375 66.933594 61.359375 Z M 65.371094 63.441406 L 65.371094 67.085938 L 66.414062 68.648438 L 67.453125 67.085938 L 67.453125 63.441406 Z M 65.890625 63.960938 L 66.414062 63.960938 L 66.414062 66.566406 L 65.890625 66.566406 Z M 101.125 102.726562 L 98.605469 105.25 L 98.941406 105.582031 L 101.125 107.769531 L 103.648438 105.25 Z M 101.125 104.066406 L 102.308594 105.25 L 101.125 106.433594 L 99.941406 105.25 Z M 80.808594 135.226562 C 79.449219 135.226562 78.351562 136.324219 78.351562 137.6875 L 78.351562 141.378906 C 78.351562 142.742188 79.449219 143.839844 80.808594 143.839844 L 84.5 143.839844 C 85.863281 143.839844 86.960938 142.742188 86.960938 141.378906 L 86.960938 137.6875 C 86.960938 136.324219 85.863281 135.226562 84.5 135.226562 Z M 80.195312 138.300781 C 80.535156 138.300781 80.808594 138.578125 80.808594 138.917969 L 80.808594 140.148438 C 80.808594 140.488281 80.535156 140.761719 80.195312 140.761719 C 79.855469 140.761719 79.582031 140.488281 79.582031 140.148438 L 79.582031 138.917969 C 79.582031 138.578125 79.855469 138.300781 80.195312 138.300781 Z M 85.117188 138.300781 C 85.457031 138.300781 85.730469 138.578125 85.730469 138.917969 L 85.730469 140.148438 C 85.730469 140.488281 85.457031 140.761719 85.117188 140.761719 C 84.777344 140.761719 84.5 140.488281 84.5 140.148438 L 84.5 138.917969 C 84.5 138.578125 84.777344 138.300781 85.117188 138.300781 Z M 83.953125 141.445312 C 84.207031 141.4375 84.441406 141.589844 84.539062 141.824219 C 84.632812 142.054688 84.578125 142.328125 84.394531 142.503906 C 83.933594 142.964844 83.308594 143.222656 82.65625 143.222656 C 82.003906 143.222656 81.378906 142.964844 80.917969 142.503906 C 80.738281 142.328125 80.679688 142.0625 80.773438 141.828125 C 80.871094 141.597656 81.09375 141.445312 81.34375 141.445312 C 81.511719 141.445312 81.671875 141.515625 81.785156 141.632812 C 82.015625 141.863281 82.328125 141.992188 82.65625 141.992188 C 82.980469 141.992188 83.296875 141.863281 83.527344 141.632812 C 83.636719 141.515625 83.792969 141.449219 83.953125 141.445312 Z M 83.953125 141.445312 "/>
<path style=" stroke:none;fill-rule:nonzero;fill:url(#linear3);" d="M 88.894531 6.296875 C 88.640625 6.296875 88.4375 6.503906 88.4375 6.753906 L 88.4375 12.253906 C 88.4375 12.507812 88.640625 12.710938 88.894531 12.710938 L 90.726562 12.710938 L 90.726562 11.792969 L 89.351562 11.792969 L 89.351562 7.214844 L 93.476562 7.214844 L 93.476562 6.296875 Z M 93.015625 7.671875 C 92.003906 7.671875 91.183594 8.492188 91.183594 9.503906 C 91.1875 10.15625 91.535156 10.761719 92.101562 11.089844 L 92.101562 11.335938 C 92.101562 11.589844 92.304688 11.792969 92.558594 11.792969 L 93.476562 11.792969 C 93.730469 11.792969 93.933594 11.589844 93.933594 11.335938 L 93.933594 11.089844 C 94.5 10.761719 94.847656 10.15625 94.851562 9.503906 C 94.851562 8.492188 94.027344 7.671875 93.015625 7.671875 Z M 93.015625 8.589844 C 93.523438 8.589844 93.933594 9 93.933594 9.503906 C 93.933594 10.011719 93.523438 10.421875 93.015625 10.421875 C 92.511719 10.421875 92.101562 10.011719 92.101562 9.503906 C 92.101562 9 92.511719 8.589844 93.015625 8.589844 Z M 92.558594 12.253906 L 92.558594 12.710938 L 93.476562 12.710938 L 93.476562 12.253906 Z M 92.558594 12.253906 "/>
<path style=" stroke:none;fill-rule:nonzero;fill:rgb(100%,46.666667%,53.333333%);fill-opacity:0.952941;" d="M 71.300781 18.390625 L 67.386719 20.347656 L 67.386719 25.566406 L 71.300781 27.523438 L 75.214844 25.566406 L 75.214844 24.261719 L 73.910156 23.609375 L 71.300781 24.914062 L 69.996094 24.261719 L 69.996094 21.652344 L 71.300781 21 L 71.300781 19.695312 L 72.605469 19.042969 Z M 73.910156 19.695312 L 72.605469 20.347656 L 72.605469 21.652344 L 73.910156 22.304688 L 75.214844 21.652344 L 75.214844 20.347656 Z M 73.910156 19.695312 "/>
<path style=" stroke:none;fill-rule:evenodd;fill:rgb(40.392157%,55.686275%,90.196078%);fill-opacity:1;" d="M 80.238281 5.476562 C 79.078125 5.476562 77.609375 6.363281 77.078125 8.070312 C 77.054688 8.152344 77.050781 8.242188 77.074219 8.328125 C 77.585938 10.117188 79.101562 10.929688 80.238281 10.929688 C 81.375 10.929688 82.890625 10.117188 83.402344 8.328125 C 83.425781 8.246094 83.425781 8.160156 83.402344 8.078125 C 82.902344 6.355469 81.398438 5.476562 80.238281 5.476562 Z M 80.238281 6.386719 C 81.242188 6.386719 82.054688 7.199219 82.054688 8.203125 C 82.054688 9.207031 81.242188 10.019531 80.238281 10.019531 C 79.234375 10.019531 78.421875 9.207031 78.421875 8.203125 C 78.421875 7.199219 79.234375 6.386719 80.238281 6.386719 Z M 80.238281 7.292969 C 79.738281 7.292969 79.332031 7.703125 79.332031 8.203125 C 79.332031 8.707031 79.738281 9.113281 80.238281 9.113281 C 80.742188 9.113281 81.148438 8.707031 81.148438 8.203125 C 81.148438 7.703125 80.742188 7.292969 80.238281 7.292969 Z M 80.238281 7.292969 "/>
<path style=" stroke:none;fill-rule:evenodd;fill:rgb(43.921569%,88.235294%,86.666667%);fill-opacity:1;" d="M 82.382812 47.191406 C 81.933594 47.191406 81.570312 47.558594 81.570312 48.007812 C 81.570312 48.296875 81.726562 48.566406 81.976562 48.710938 L 81.976562 52.886719 L 82.789062 52.886719 L 82.789062 48.710938 C 82.914062 48.636719 83.015625 48.535156 83.089844 48.414062 L 84.933594 48.414062 C 85.003906 48.535156 85.109375 48.640625 85.230469 48.710938 L 85.230469 50.039062 L 84.417969 50.039062 L 84.417969 50.851562 L 84.011719 51.667969 L 85.230469 52.480469 L 85.230469 50.851562 L 86.042969 50.851562 L 86.042969 52.480469 L 87.265625 51.667969 L 86.859375 50.851562 L 86.859375 50.039062 L 86.042969 50.039062 L 86.042969 48.710938 C 86.296875 48.5625 86.449219 48.296875 86.449219 48.007812 C 86.449219 47.558594 86.085938 47.191406 85.636719 47.191406 C 85.347656 47.191406 85.078125 47.347656 84.933594 47.601562 L 83.085938 47.601562 C 82.941406 47.347656 82.675781 47.195312 82.382812 47.191406 Z M 82.382812 47.191406 "/>
<path style=" stroke:none;fill-rule:evenodd;fill:url(#linear4);" d="M 63.097656 116.414062 L 63.097656 123.539062 C 63.097656 124.917969 64.230469 126.042969 65.617188 126.042969 L 70.136719 126.042969 C 71.003906 126.042969 71.699219 126.738281 71.699219 127.605469 C 71.699219 128.472656 71.003906 129.164062 70.136719 129.164062 L 52.847656 129.164062 C 51.472656 129.164062 50.34375 130.292969 50.34375 131.667969 L 50.34375 133.570312 L 41.996094 133.570312 C 41.339844 133.570312 40.804688 134.105469 40.804688 134.761719 L 40.804688 144.300781 C 40.804688 144.960938 41.339844 145.496094 41.996094 145.496094 L 58.691406 145.496094 C 59.347656 145.496094 59.882812 144.960938 59.882812 144.300781 L 59.882812 134.761719 C 59.882812 134.105469 59.347656 133.570312 58.691406 133.570312 L 51.289062 133.570312 L 51.289062 131.667969 C 51.289062 130.800781 51.980469 130.109375 52.847656 130.109375 L 70.136719 130.109375 C 71.515625 130.109375 72.644531 128.980469 72.644531 127.605469 C 72.644531 126.226562 71.515625 125.097656 70.136719 125.097656 L 65.617188 125.097656 C 64.734375 125.097656 64.042969 124.40625 64.042969 123.539062 L 64.042969 116.414062 Z M 44.382812 135.957031 L 46.765625 135.957031 L 46.765625 138.339844 L 49.152344 138.339844 L 49.152344 140.726562 L 46.765625 140.726562 L 46.765625 143.109375 L 44.382812 143.109375 L 44.382812 140.726562 L 41.996094 140.726562 L 41.996094 138.339844 L 44.382812 138.339844 Z M 56.902344 135.957031 C 57.890625 135.957031 58.691406 136.757812 58.691406 137.742188 C 58.691406 138.730469 57.890625 139.53125 56.902344 139.53125 C 55.914062 139.53125 55.113281 138.730469 55.113281 137.742188 C 55.113281 136.757812 55.914062 135.957031 56.902344 135.957031 Z M 53.324219 139.53125 C 54.3125 139.53125 55.113281 140.332031 55.113281 141.320312 C 55.113281 142.308594 54.3125 143.109375 53.324219 143.109375 C 52.335938 143.109375 51.535156 142.308594 51.535156 141.320312 C 51.535156 140.332031 52.335938 139.53125 53.324219 139.53125 Z M 53.324219 139.53125 "/>
<path style=" stroke:none;fill-rule:nonzero;fill:url(#linear5);" d="M 57.46875 36.5625 C 57.160156 36.5625 56.910156 36.8125 56.910156 37.121094 L 56.910156 38.792969 C 56.910156 39.105469 57.160156 39.351562 57.46875 39.351562 L 58.027344 39.351562 L 58.027344 39.90625 C 57.964844 39.90625 57.90625 39.917969 57.847656 39.941406 L 56.703125 40.320312 L 56.324219 39.175781 C 56.246094 38.9375 56.019531 38.777344 55.769531 38.789062 C 55.59375 38.792969 55.429688 38.882812 55.332031 39.03125 C 55.230469 39.175781 55.207031 39.363281 55.265625 39.527344 L 55.820312 41.203125 C 55.917969 41.496094 56.234375 41.652344 56.527344 41.554688 L 57.46875 41.242188 L 57.46875 41.585938 C 57.46875 41.609375 57.476562 41.628906 57.480469 41.648438 L 54.925781 43.351562 C 54.757812 43.460938 54.660156 43.652344 54.671875 43.855469 C 54.683594 44.054688 54.800781 44.234375 54.984375 44.324219 C 55.164062 44.414062 55.378906 44.394531 55.542969 44.28125 L 58.367188 42.398438 L 59.199219 44.066406 C 59.324219 44.316406 59.613281 44.433594 59.875 44.347656 L 61.550781 43.789062 C 61.746094 43.730469 61.894531 43.570312 61.9375 43.371094 C 61.980469 43.171875 61.910156 42.964844 61.757812 42.832031 C 61.601562 42.699219 61.386719 42.660156 61.199219 42.730469 L 59.980469 43.136719 L 59.4375 42.046875 C 59.59375 41.945312 59.699219 41.78125 59.699219 41.585938 L 59.699219 41.027344 L 60.472656 41.027344 L 60.875 41.835938 C 60.964844 42.015625 61.140625 42.132812 61.339844 42.144531 C 61.542969 42.160156 61.734375 42.0625 61.84375 41.894531 C 61.953125 41.726562 61.964844 41.515625 61.875 41.335938 L 61.316406 40.21875 C 61.222656 40.03125 61.027344 39.910156 60.816406 39.910156 L 59.140625 39.910156 L 59.140625 39.351562 L 59.699219 39.351562 C 60.007812 39.351562 60.257812 39.105469 60.257812 38.792969 L 60.257812 37.121094 C 60.257812 36.8125 60.007812 36.5625 59.699219 36.5625 Z M 57.46875 37.679688 L 58.027344 37.679688 L 58.027344 38.792969 L 57.46875 38.792969 Z M 57.46875 37.679688 "/>
<path style=" stroke:none;fill-rule:nonzero;fill:rgb(40.392157%,55.686275%,90.196078%);fill-opacity:1;" d="M 45.449219 9.25 C 44.847656 9.25 44.289062 9.574219 43.988281 10.09375 C 43.6875 10.613281 43.6875 11.257812 43.988281 11.777344 C 44.289062 12.300781 44.847656 12.621094 45.449219 12.621094 L 45.785156 12.621094 L 45.785156 11.945312 L 45.449219 11.945312 C 44.890625 11.945312 44.4375 11.492188 44.4375 10.9375 C 44.4375 10.378906 44.890625 9.925781 45.449219 9.925781 L 45.785156 9.925781 L 45.785156 9.25 Z M 46.460938 9.25 L 46.460938 9.925781 L 46.796875 9.925781 C 47.355469 9.925781 47.808594 10.378906 47.808594 10.9375 C 47.808594 11.492188 47.355469 11.945312 46.796875 11.945312 L 46.460938 11.945312 L 46.460938 12.621094 L 46.796875 12.621094 C 47.398438 12.621094 47.953125 12.300781 48.253906 11.777344 C 48.554688 11.257812 48.554688 10.613281 48.253906 10.09375 C 47.953125 9.574219 47.398438 9.25 46.796875 9.25 Z M 45.449219 10.597656 C 45.261719 10.597656 45.113281 10.75 45.113281 10.9375 C 45.113281 11.121094 45.261719 11.273438 45.449219 11.273438 L 46.796875 11.273438 C 46.980469 11.273438 47.132812 11.121094 47.132812 10.9375 C 47.132812 10.75 46.980469 10.597656 46.796875 10.597656 Z M 45.449219 10.597656 "/>
<path style=" stroke:none;fill-rule:nonzero;fill:rgb(96.470588%,45.882353%,52.941176%);fill-opacity:1;" d="M 92.351562 29.015625 C 91.804688 29.015625 91.359375 29.460938 91.359375 30.007812 C 91.359375 30.363281 91.550781 30.6875 91.855469 30.867188 L 91.855469 34.109375 C 91.550781 34.285156 91.363281 34.613281 91.359375 34.96875 C 91.359375 35.515625 91.804688 35.960938 92.351562 35.960938 C 92.707031 35.957031 93.035156 35.769531 93.210938 35.464844 L 94.453125 35.464844 L 94.828125 34.472656 L 93.210938 34.472656 C 93.125 34.320312 93 34.195312 92.847656 34.109375 L 92.847656 31.203125 L 95.179688 33.535156 L 95.5625 32.515625 L 93.550781 30.503906 L 96.457031 30.503906 C 96.542969 30.652344 96.667969 30.777344 96.816406 30.867188 L 96.816406 31 C 96.820312 31 96.824219 31 96.828125 31 C 97.238281 31.003906 97.601562 31.261719 97.746094 31.644531 L 97.808594 31.8125 L 97.808594 30.863281 C 98.113281 30.6875 98.304688 30.359375 98.304688 30.007812 C 98.304688 29.460938 97.859375 29.015625 97.3125 29.015625 C 96.957031 29.015625 96.632812 29.203125 96.453125 29.511719 L 93.210938 29.511719 C 93.035156 29.203125 92.707031 29.015625 92.351562 29.015625 Z M 96.816406 31.992188 L 95.328125 35.960938 L 96.816406 34.96875 L 98.304688 35.960938 Z M 96.816406 31.992188 "/>
<path style=" stroke:none;fill-rule:nonzero;fill:rgb(97.647059%,56.078431%,52.941176%);fill-opacity:1;" d="M 58.355469 25.257812 C 58.105469 25.257812 57.890625 25.441406 57.859375 25.691406 L 57.566406 28.035156 L 57.308594 27.515625 C 57.222656 27.347656 57.050781 27.242188 56.863281 27.242188 L 55.871094 27.242188 C 55.691406 27.238281 55.527344 27.332031 55.4375 27.488281 C 55.347656 27.640625 55.347656 27.832031 55.4375 27.988281 C 55.527344 28.140625 55.691406 28.234375 55.871094 28.234375 L 56.558594 28.234375 L 57.414062 29.941406 C 57.511719 30.136719 57.722656 30.246094 57.941406 30.210938 C 58.15625 30.171875 58.320312 30 58.347656 29.785156 L 58.640625 27.441406 L 58.898438 27.960938 C 58.984375 28.128906 59.15625 28.234375 59.34375 28.234375 L 60.832031 28.234375 C 61.011719 28.234375 61.175781 28.140625 61.269531 27.988281 C 61.359375 27.832031 61.359375 27.640625 61.269531 27.488281 C 61.175781 27.332031 61.011719 27.238281 60.832031 27.242188 L 59.652344 27.242188 L 58.796875 25.53125 C 58.710938 25.363281 58.542969 25.257812 58.355469 25.257812 Z M 59.335938 28.730469 L 59.335938 32.203125 L 61.816406 32.203125 C 62.089844 32.203125 62.3125 31.980469 62.3125 31.707031 L 62.3125 29.226562 C 62.3125 28.953125 62.089844 28.730469 61.816406 28.730469 L 61.816406 30.714844 L 61.320312 30.21875 L 60.824219 30.714844 L 60.824219 28.730469 Z M 59.335938 28.730469 "/>
<path style=" stroke:none;fill-rule:nonzero;fill:rgb(45.882353%,59.215686%,96.470588%);fill-opacity:1;" d="M 80.457031 24.808594 C 80.183594 24.808594 79.960938 25.027344 79.960938 25.304688 L 79.960938 29.808594 C 79.960938 30.058594 80.183594 30.261719 80.457031 30.261719 L 84.425781 30.261719 C 84.699219 30.261719 84.921875 30.058594 84.921875 29.808594 L 84.921875 25.304688 C 84.921875 25.027344 84.699219 24.808594 84.425781 24.808594 Z M 78.96875 25.800781 L 78.96875 30.261719 C 78.96875 30.808594 79.414062 31.253906 79.960938 31.253906 L 84.921875 31.253906 C 85.46875 31.253906 85.914062 30.808594 85.914062 30.261719 L 85.914062 25.800781 L 85.417969 25.800781 L 85.417969 30.261719 C 85.417969 30.535156 85.195312 30.757812 84.921875 30.757812 L 79.960938 30.757812 C 79.6875 30.757812 79.464844 30.535156 79.464844 30.261719 L 79.464844 25.800781 Z M 81.945312 25.800781 L 83.433594 25.800781 L 82.9375 27.285156 L 83.929688 27.285156 L 81.945312 29.269531 L 82.441406 27.78125 L 81.449219 27.78125 Z M 81.945312 25.800781 "/>
<path style=" stroke:none;fill-rule:nonzero;fill:url(#linear6);" d="M 45.875 28.625 C 44.324219 28.625 43.066406 29.882812 43.066406 31.433594 C 43.066406 32.4375 43.601562 33.359375 44.46875 33.859375 L 44.46875 36.351562 C 44.46875 36.855469 44.738281 37.316406 45.171875 37.570312 C 45.386719 37.691406 45.628906 37.753906 45.875 37.753906 L 48.683594 37.753906 C 48.929688 37.753906 49.171875 37.691406 49.386719 37.570312 C 49.820312 37.316406 50.089844 36.855469 50.089844 36.351562 L 50.089844 33.859375 C 50.953125 33.359375 51.488281 32.4375 51.492188 31.433594 C 51.492188 29.882812 50.234375 28.625 48.683594 28.625 Z M 45.171875 30.734375 C 45.558594 30.734375 45.875 31.046875 45.875 31.433594 C 45.875 31.824219 45.558594 32.136719 45.171875 32.136719 C 44.785156 32.136719 44.46875 31.824219 44.46875 31.433594 C 44.46875 31.046875 44.785156 30.734375 45.171875 30.734375 Z M 49.386719 30.734375 C 49.773438 30.734375 50.089844 31.046875 50.089844 31.433594 C 50.089844 31.824219 49.773438 32.136719 49.386719 32.136719 C 48.996094 32.136719 48.683594 31.824219 48.683594 31.433594 C 48.683594 31.046875 48.996094 30.734375 49.386719 30.734375 Z M 46.578125 32.136719 L 47.980469 32.136719 L 47.980469 32.839844 L 46.578125 32.839844 Z M 45.171875 33.542969 L 45.875 33.542969 L 45.875 34.246094 L 46.578125 34.246094 L 46.578125 33.542969 L 47.980469 33.542969 L 47.980469 34.246094 L 48.683594 34.246094 L 48.683594 33.542969 L 49.386719 33.542969 L 49.386719 36.351562 L 48.683594 36.351562 L 48.683594 35.648438 L 47.980469 35.648438 L 47.980469 36.351562 L 46.578125 36.351562 L 46.578125 35.648438 L 45.875 35.648438 L 45.875 36.351562 L 45.171875 36.351562 Z M 45.171875 33.542969 "/>
<path style=" stroke:none;fill-rule:nonzero;fill:rgb(40.392157%,55.686275%,90.196078%);fill-opacity:1;" d="M 35.347656 13.402344 C 35.015625 13.402344 34.746094 13.671875 34.746094 14 C 34.746094 14.332031 35.015625 14.601562 35.347656 14.601562 C 38.007812 14.601562 40.148438 16.746094 40.148438 19.402344 C 40.148438 19.734375 40.417969 20.003906 40.75 20.003906 C 41.082031 20.003906 41.351562 19.734375 41.351562 19.402344 C 41.351562 16.09375 38.65625 13.402344 35.347656 13.402344 Z M 35.347656 15.800781 C 35.015625 15.800781 34.746094 16.070312 34.746094 16.402344 C 34.746094 16.734375 35.015625 17.003906 35.347656 17.003906 C 36.679688 17.003906 37.75 18.070312 37.75 19.402344 C 37.75 19.734375 38.019531 20.003906 38.347656 20.003906 C 38.679688 20.003906 38.949219 19.734375 38.949219 19.402344 C 38.949219 17.421875 37.328125 15.800781 35.347656 15.800781 Z M 35.347656 18.203125 C 34.683594 18.203125 34.148438 18.742188 34.148438 19.402344 C 34.148438 20.066406 34.683594 20.605469 35.347656 20.605469 C 36.011719 20.605469 36.546875 20.066406 36.546875 19.402344 C 36.546875 18.742188 36.011719 18.203125 35.347656 18.203125 Z M 35.347656 18.203125 "/>
<path style=" stroke:none;fill-rule:nonzero;fill:url(#linear7);" d="M 92.957031 16.390625 C 92.671875 16.390625 92.4375 16.625 92.4375 16.910156 L 92.4375 18.832031 C 91.507812 19.28125 90.878906 20.109375 90.878906 21.070312 L 92.957031 21.070312 C 92.957031 21.644531 93.421875 22.109375 93.996094 22.109375 C 94.570312 22.109375 95.035156 21.644531 95.035156 21.070312 L 97.113281 21.070312 C 97.113281 20.109375 96.484375 19.28125 95.554688 18.832031 L 95.554688 16.910156 C 95.554688 16.625 95.324219 16.390625 95.035156 16.390625 Z M 92.386719 21.398438 L 91.488281 21.917969 L 92.007812 22.816406 L 92.90625 22.296875 Z M 95.605469 21.398438 L 95.085938 22.296875 L 95.988281 22.816406 L 96.507812 21.917969 Z M 93.476562 22.628906 L 93.476562 23.667969 L 94.515625 23.667969 L 94.515625 22.628906 Z M 93.476562 22.628906 "/>
<path style=" stroke:none;fill-rule:nonzero;fill:url(#linear8);" d="M 68.136719 44.214844 C 66.097656 44.214844 64.460938 45.855469 64.460938 47.890625 L 64.460938 53.402344 C 64.460938 55.4375 66.097656 57.078125 68.136719 57.078125 L 73.648438 57.078125 C 75.683594 57.078125 77.324219 55.4375 77.324219 53.402344 L 77.324219 47.890625 C 77.324219 45.855469 75.683594 44.214844 73.648438 44.214844 Z M 67.214844 48.808594 C 67.726562 48.808594 68.136719 49.21875 68.136719 49.726562 L 68.136719 51.566406 C 68.136719 52.074219 67.726562 52.484375 67.214844 52.484375 C 66.707031 52.484375 66.296875 52.074219 66.296875 51.566406 L 66.296875 49.726562 C 66.296875 49.21875 66.707031 48.808594 67.214844 48.808594 Z M 74.566406 48.808594 C 75.074219 48.808594 75.484375 49.21875 75.484375 49.726562 L 75.484375 51.566406 C 75.484375 52.074219 75.074219 52.484375 74.566406 52.484375 C 74.058594 52.484375 73.648438 52.074219 73.648438 51.566406 L 73.648438 49.726562 C 73.648438 49.21875 74.058594 48.808594 74.566406 48.808594 Z M 72.832031 53.5 C 73.210938 53.492188 73.554688 53.714844 73.699219 54.066406 C 73.847656 54.414062 73.761719 54.820312 73.488281 55.082031 C 72.800781 55.769531 71.867188 56.15625 70.890625 56.15625 C 69.917969 56.15625 68.980469 55.769531 68.292969 55.082031 C 68.027344 54.820312 67.941406 54.421875 68.082031 54.078125 C 68.222656 53.730469 68.558594 53.503906 68.933594 53.503906 C 69.183594 53.503906 69.417969 53.605469 69.59375 53.78125 C 69.9375 54.128906 70.402344 54.320312 70.890625 54.320312 C 71.378906 54.320312 71.847656 54.128906 72.191406 53.78125 C 72.359375 53.609375 72.589844 53.507812 72.832031 53.5 Z M 72.832031 53.5 "/>
<path style=" stroke:none;fill-rule:nonzero;fill:rgb(43.921569%,55.686275%,88.235294%);fill-opacity:1;" d="M 92.089844 42.253906 C 92.035156 42.253906 91.980469 42.261719 91.929688 42.285156 C 91.929688 42.285156 91.929688 42.285156 91.925781 42.285156 C 91.878906 42.304688 91.835938 42.335938 91.800781 42.371094 C 91.800781 42.371094 91.796875 42.371094 91.796875 42.371094 C 91.761719 42.410156 91.734375 42.449219 91.714844 42.496094 C 91.714844 42.5 91.710938 42.5 91.710938 42.503906 C 91.691406 42.554688 91.679688 42.605469 91.679688 42.660156 C 91.679688 43.269531 92.074219 43.730469 92.441406 44.152344 C 92.753906 44.503906 93.019531 44.820312 93.207031 45.105469 C 93.019531 45.390625 92.753906 45.707031 92.441406 46.058594 C 92.074219 46.480469 91.679688 46.9375 91.679688 47.550781 C 91.679688 47.605469 91.691406 47.660156 91.710938 47.710938 C 91.710938 47.710938 91.710938 47.710938 91.710938 47.714844 C 91.734375 47.757812 91.761719 47.800781 91.796875 47.839844 C 91.796875 47.839844 91.800781 47.839844 91.800781 47.839844 C 91.835938 47.875 91.878906 47.902344 91.921875 47.921875 C 91.925781 47.925781 91.929688 47.925781 91.933594 47.929688 C 91.980469 47.949219 92.035156 47.960938 92.085938 47.960938 L 96.164062 47.960938 C 96.214844 47.960938 96.265625 47.949219 96.316406 47.929688 C 96.320312 47.925781 96.324219 47.925781 96.328125 47.921875 C 96.371094 47.902344 96.414062 47.875 96.449219 47.84375 C 96.449219 47.839844 96.449219 47.839844 96.453125 47.835938 C 96.488281 47.800781 96.515625 47.761719 96.535156 47.71875 C 96.539062 47.714844 96.539062 47.710938 96.539062 47.707031 C 96.5625 47.65625 96.570312 47.605469 96.570312 47.550781 C 96.570312 46.941406 96.175781 46.484375 95.808594 46.0625 C 95.5 45.707031 95.230469 45.390625 95.042969 45.105469 C 95.230469 44.824219 95.5 44.507812 95.808594 44.152344 C 96.175781 43.730469 96.570312 43.273438 96.570312 42.660156 C 96.570312 42.605469 96.5625 42.550781 96.539062 42.503906 C 96.519531 42.453125 96.488281 42.410156 96.453125 42.375 C 96.414062 42.335938 96.371094 42.308594 96.324219 42.289062 C 96.324219 42.285156 96.324219 42.285156 96.320312 42.285156 C 96.269531 42.261719 96.21875 42.253906 96.164062 42.253906 Z M 92.734375 43.066406 L 95.515625 43.066406 C 95.421875 43.246094 95.390625 43.390625 95.195312 43.613281 C 94.851562 44.007812 94.421875 44.417969 94.167969 44.921875 C 94.140625 44.980469 94.125 45.042969 94.125 45.105469 C 94.125 45.042969 94.113281 44.980469 94.082031 44.921875 C 93.832031 44.417969 93.402344 44.007812 93.058594 43.613281 C 92.859375 43.390625 92.832031 43.246094 92.734375 43.066406 Z M 92.734375 43.066406 "/>
<path style=" stroke:none;fill-rule:nonzero;fill:rgb(96.470588%,45.882353%,52.941176%);fill-opacity:1;" d="M 81.855469 14.828125 L 81.460938 15.613281 L 81.855469 16.398438 L 81.855469 17.96875 L 81.070312 17.96875 L 81.070312 19.347656 C 81.070312 19.890625 81.507812 20.328125 82.050781 20.328125 C 82.597656 20.328125 83.035156 19.890625 83.035156 19.347656 L 83.035156 17.96875 L 82.246094 17.96875 L 82.246094 16.398438 L 82.640625 15.613281 L 82.246094 14.828125 Z M 84.210938 14.894531 C 83.742188 15.0625 83.425781 15.507812 83.425781 16.007812 C 83.425781 16.503906 83.742188 16.949219 84.210938 17.117188 L 84.210938 19.933594 C 84.210938 20.152344 84.386719 20.328125 84.605469 20.328125 C 84.824219 20.328125 85 20.152344 85 19.933594 L 85 17.117188 C 85.46875 16.949219 85.785156 16.503906 85.785156 16.007812 C 85.785156 15.507812 85.46875 15.0625 85 14.894531 L 85 16.007812 C 85 16.222656 84.824219 16.398438 84.605469 16.398438 C 84.386719 16.398438 84.210938 16.222656 84.210938 16.007812 Z M 84.210938 14.894531 "/>
<path style=" stroke:none;fill-rule:nonzero;fill:rgb(98.823529%,63.921569%,52.54902%);fill-opacity:1;" d="M 56.96875 66.320312 L 56.96875 69.75 C 56.96875 69.894531 57.085938 70.011719 57.230469 70.011719 L 60.660156 70.011719 L 60.660156 69.484375 L 57.496094 69.484375 L 57.496094 67.902344 L 58.023438 67.902344 L 58.023438 68.695312 C 58.023438 68.839844 58.140625 68.957031 58.285156 68.957031 L 60.660156 68.957031 L 60.660156 68.429688 L 58.550781 68.429688 L 58.550781 67.902344 L 60.660156 67.902344 L 60.660156 67.375 L 57.496094 67.375 L 57.496094 66.847656 L 60.660156 66.847656 L 60.660156 66.320312 Z M 56.96875 66.320312 "/>
<path style=" stroke:none;fill-rule:nonzero;fill:rgb(40.392157%,55.686275%,90.196078%);fill-opacity:1;" d="M 103.378906 36.539062 C 103.105469 36.539062 102.882812 36.761719 102.882812 37.035156 L 102.386719 38.523438 L 101.394531 38.523438 L 101.394531 40.507812 L 101.917969 40.507812 C 102.03125 39.941406 102.53125 39.515625 103.132812 39.515625 C 103.730469 39.515625 104.230469 39.941406 104.347656 40.507812 L 105.386719 40.507812 C 105.503906 39.941406 106.003906 39.515625 106.601562 39.515625 C 107.203125 39.515625 107.703125 39.941406 107.816406 40.507812 L 108.339844 40.507812 L 108.339844 38.523438 L 106.355469 38.523438 L 106.355469 36.539062 Z M 103.875 37.035156 L 105.859375 37.035156 L 105.859375 38.523438 L 103.875 38.523438 Z M 103.132812 40.011719 C 102.71875 40.011719 102.386719 40.34375 102.386719 40.753906 C 102.386719 41.164062 102.71875 41.5 103.132812 41.5 C 103.542969 41.5 103.875 41.164062 103.875 40.753906 C 103.875 40.34375 103.542969 40.011719 103.132812 40.011719 Z M 106.601562 40.011719 C 106.191406 40.011719 105.859375 40.34375 105.859375 40.753906 C 105.859375 41.164062 106.191406 41.5 106.601562 41.5 C 107.015625 41.5 107.347656 41.164062 107.347656 40.753906 C 107.347656 40.34375 107.015625 40.011719 106.601562 40.011719 Z M 106.601562 40.011719 "/>
<path style=" stroke:none;fill-rule:evenodd;fill:rgb(47.058824%,89.803922%,96.470588%);fill-opacity:1;" d="M 46.582031 56.191406 L 46.582031 58.1875 L 47.25 58.1875 L 47.25 56.191406 Z M 45.25 56.859375 C 44.402344 56.859375 43.324219 57.507812 42.9375 58.757812 C 42.917969 58.816406 42.917969 58.882812 42.933594 58.945312 C 43.308594 60.257812 44.417969 60.851562 45.25 60.851562 C 45.746094 60.851562 46.339844 60.632812 46.820312 60.1875 L 45.917969 60.1875 L 45.917969 60.003906 C 45.714844 60.125 45.484375 60.183594 45.25 60.1875 C 44.515625 60.1875 43.921875 59.589844 43.921875 58.855469 C 43.921875 58.121094 44.515625 57.523438 45.25 57.523438 C 45.484375 57.523438 45.714844 57.585938 45.917969 57.703125 L 45.917969 56.976562 C 45.691406 56.898438 45.464844 56.859375 45.25 56.859375 Z M 45.25 58.1875 C 44.882812 58.1875 44.585938 58.488281 44.585938 58.855469 C 44.585938 59.222656 44.882812 59.519531 45.25 59.519531 C 45.617188 59.519531 45.917969 59.222656 45.917969 58.855469 C 45.917969 58.488281 45.617188 58.1875 45.25 58.1875 Z M 46.582031 58.855469 L 46.582031 59.519531 L 47.25 59.519531 L 47.25 58.855469 Z M 46.582031 58.855469 "/>
<path style=" stroke:none;fill-rule:nonzero;fill:rgb(40.392157%,55.686275%,90.196078%);fill-opacity:1;" d="M 57.058594 52.996094 C 56.851562 52.996094 56.660156 53.101562 56.542969 53.277344 L 53.566406 57.742188 C 53.0625 58.109375 52.695312 58.601562 52.652344 59.207031 C 52.644531 59.246094 52.640625 59.285156 52.640625 59.324219 C 52.640625 59.460938 52.660156 59.589844 52.691406 59.714844 C 52.695312 59.730469 52.699219 59.75 52.707031 59.765625 C 52.738281 59.886719 52.785156 60.003906 52.847656 60.113281 C 52.96875 60.347656 53.144531 60.554688 53.355469 60.738281 C 53.359375 60.742188 53.363281 60.75 53.367188 60.753906 C 53.378906 60.761719 53.390625 60.769531 53.402344 60.78125 C 53.46875 60.832031 53.535156 60.882812 53.609375 60.933594 C 53.757812 61.042969 53.917969 61.144531 54.09375 61.230469 C 54.097656 61.234375 54.097656 61.234375 54.101562 61.234375 C 54.109375 61.238281 54.113281 61.242188 54.121094 61.242188 C 54.289062 61.324219 54.46875 61.398438 54.65625 61.464844 C 54.722656 61.488281 54.792969 61.511719 54.859375 61.53125 C 54.90625 61.546875 54.949219 61.566406 54.996094 61.578125 C 55.101562 61.609375 55.210938 61.632812 55.320312 61.660156 C 55.378906 61.671875 55.4375 61.691406 55.496094 61.703125 C 55.503906 61.703125 55.511719 61.703125 55.519531 61.707031 C 55.738281 61.75 55.960938 61.78125 56.1875 61.808594 C 56.222656 61.8125 56.261719 61.816406 56.296875 61.820312 C 56.808594 61.871094 57.332031 61.871094 57.84375 61.820312 C 57.882812 61.816406 57.917969 61.8125 57.957031 61.808594 C 58.179688 61.78125 58.40625 61.75 58.625 61.707031 C 58.632812 61.703125 58.636719 61.703125 58.644531 61.703125 C 58.707031 61.691406 58.761719 61.671875 58.820312 61.660156 C 58.929688 61.632812 59.039062 61.609375 59.144531 61.578125 C 59.191406 61.566406 59.234375 61.546875 59.28125 61.53125 C 59.351562 61.511719 59.417969 61.488281 59.484375 61.464844 C 59.671875 61.398438 59.855469 61.324219 60.023438 61.242188 C 60.027344 61.238281 60.035156 61.238281 60.042969 61.234375 L 60.046875 61.230469 C 60.222656 61.144531 60.382812 61.042969 60.535156 60.933594 C 60.605469 60.882812 60.675781 60.835938 60.738281 60.78125 C 60.75 60.769531 60.765625 60.761719 60.773438 60.753906 C 60.78125 60.75 60.78125 60.742188 60.789062 60.738281 C 61 60.554688 61.171875 60.347656 61.296875 60.113281 C 61.355469 60.003906 61.402344 59.886719 61.4375 59.765625 C 61.441406 59.75 61.445312 59.730469 61.449219 59.714844 C 61.480469 59.589844 61.503906 59.460938 61.503906 59.324219 C 61.503906 59.285156 61.5 59.25 61.492188 59.210938 C 61.492188 59.207031 61.492188 59.203125 61.492188 59.199219 C 61.445312 58.597656 61.078125 58.109375 60.574219 57.742188 L 57.597656 53.277344 C 57.476562 53.097656 57.277344 52.992188 57.058594 52.996094 Z M 56.4375 55.71875 L 56.4375 56.824219 C 56.160156 56.84375 55.890625 56.878906 55.632812 56.925781 Z M 57.703125 55.71875 L 58.511719 56.925781 C 58.25 56.878906 57.980469 56.84375 57.703125 56.824219 Z M 56.4375 58.089844 L 56.4375 59.324219 C 56.433594 59.554688 56.554688 59.765625 56.753906 59.882812 C 56.949219 59.996094 57.191406 59.996094 57.390625 59.882812 C 57.585938 59.765625 57.707031 59.554688 57.703125 59.324219 L 57.703125 58.089844 C 58.410156 58.15625 59.03125 58.328125 59.472656 58.546875 C 59.550781 58.585938 59.605469 58.625 59.667969 58.664062 L 60.175781 59.425781 C 60.152344 59.519531 60.117188 59.621094 59.980469 59.753906 C 59.949219 59.785156 59.917969 59.816406 59.878906 59.847656 C 59.847656 59.871094 59.820312 59.890625 59.789062 59.914062 C 59.714844 59.964844 59.632812 60.015625 59.539062 60.0625 C 59.492188 60.089844 59.441406 60.113281 59.390625 60.136719 C 59.289062 60.183594 59.179688 60.230469 59.058594 60.273438 C 59.015625 60.289062 58.96875 60.304688 58.921875 60.316406 C 58.773438 60.367188 58.617188 60.410156 58.449219 60.445312 C 58.4375 60.449219 58.425781 60.453125 58.410156 60.457031 C 58.25 60.488281 58.074219 60.511719 57.898438 60.535156 C 57.355469 60.597656 56.785156 60.597656 56.242188 60.535156 C 56.066406 60.511719 55.894531 60.488281 55.730469 60.457031 C 55.71875 60.453125 55.707031 60.449219 55.691406 60.445312 C 55.527344 60.410156 55.371094 60.367188 55.222656 60.316406 C 55.175781 60.304688 55.128906 60.289062 55.082031 60.273438 C 54.964844 60.230469 54.855469 60.183594 54.753906 60.136719 C 54.699219 60.113281 54.648438 60.089844 54.601562 60.0625 C 54.507812 60.015625 54.425781 59.964844 54.355469 59.914062 C 54.320312 59.890625 54.292969 59.871094 54.265625 59.847656 C 54.222656 59.816406 54.191406 59.785156 54.160156 59.753906 C 54.023438 59.621094 53.988281 59.519531 53.96875 59.425781 L 54.472656 58.664062 C 54.539062 58.625 54.589844 58.585938 54.667969 58.546875 C 55.113281 58.328125 55.734375 58.15625 56.4375 58.089844 Z M 56.4375 58.089844 "/>
<path style=" stroke:none;fill-rule:nonzero;fill:rgb(96.078431%,45.098039%,53.72549%);fill-opacity:1;" d="M 49.480469 43.460938 C 49.421875 43.460938 49.359375 43.46875 49.300781 43.488281 L 44.160156 44.957031 C 43.84375 45.046875 43.628906 45.335938 43.628906 45.660156 L 43.628906 49.738281 C 43.507812 49.714844 43.382812 49.703125 43.261719 49.703125 C 42.246094 49.703125 41.425781 50.523438 41.425781 51.539062 C 41.425781 52.550781 42.246094 53.375 43.261719 53.375 C 44.25 53.375 45.058594 52.589844 45.09375 51.601562 C 45.097656 51.582031 45.097656 51.558594 45.097656 51.539062 L 45.097656 46.214844 L 48.769531 45.167969 L 48.769531 47.496094 L 50.238281 46.761719 L 50.238281 44.191406 C 50.238281 43.777344 49.894531 43.449219 49.480469 43.460938 Z M 48.402344 48.601562 C 48.199219 48.601562 48.035156 48.761719 48.035156 48.96875 L 48.035156 52.640625 C 48.035156 52.84375 48.199219 53.007812 48.402344 53.007812 C 48.605469 53.007812 48.769531 52.84375 48.769531 52.640625 L 48.769531 48.96875 C 48.769531 48.761719 48.605469 48.601562 48.402344 48.601562 Z M 49.871094 49.335938 C 49.667969 49.335938 49.503906 49.5 49.503906 49.703125 L 49.503906 51.90625 C 49.503906 52.109375 49.667969 52.273438 49.871094 52.273438 C 50.074219 52.273438 50.238281 52.109375 50.238281 51.90625 L 50.238281 49.703125 C 50.238281 49.5 50.074219 49.335938 49.871094 49.335938 Z M 46.933594 50.070312 C 46.730469 50.070312 46.566406 50.234375 46.566406 50.4375 L 46.566406 51.171875 C 46.566406 51.375 46.730469 51.539062 46.933594 51.539062 C 47.136719 51.539062 47.300781 51.375 47.300781 51.171875 L 47.300781 50.4375 C 47.300781 50.234375 47.136719 50.070312 46.933594 50.070312 Z M 51.339844 50.070312 C 51.136719 50.070312 50.972656 50.234375 50.972656 50.4375 L 50.972656 51.171875 C 50.972656 51.375 51.136719 51.539062 51.339844 51.539062 C 51.542969 51.539062 51.707031 51.375 51.707031 51.171875 L 51.707031 50.4375 C 51.707031 50.234375 51.542969 50.070312 51.339844 50.070312 Z M 51.339844 50.070312 "/>
<path style=" stroke:none;fill-rule:evenodd;fill:url(#linear9);" d="M 49.945312 62.621094 C 49.894531 62.621094 49.847656 62.636719 49.800781 62.65625 L 47.691406 63.714844 C 47.570312 63.773438 47.496094 63.894531 47.496094 64.027344 L 47.496094 66.140625 C 47.496094 66.273438 47.570312 66.394531 47.691406 66.453125 L 49.800781 67.511719 C 49.902344 67.558594 50.019531 67.558594 50.117188 67.511719 L 52.230469 66.453125 C 52.347656 66.394531 52.421875 66.273438 52.421875 66.140625 L 52.421875 64.027344 C 52.421875 63.894531 52.347656 63.773438 52.230469 63.714844 L 50.117188 62.65625 C 50.0625 62.632812 50.003906 62.617188 49.945312 62.621094 Z M 49.960938 63.367188 L 51.285156 64.027344 L 50.796875 64.269531 L 49.472656 63.609375 Z M 48.199219 64.597656 L 49.609375 65.300781 L 49.609375 66.625 L 48.199219 65.921875 Z M 51.71875 64.597656 L 51.71875 65.921875 L 50.3125 66.625 L 50.3125 65.300781 Z M 51.71875 64.597656 "/>
<path style=" stroke:none;fill-rule:nonzero;fill:rgb(97.254902%,54.117647%,52.54902%);fill-opacity:1;" d="M 36.773438 23.609375 L 36.773438 25.097656 L 37.765625 25.097656 L 37.765625 23.609375 Z M 35.515625 24.625 L 34.816406 25.328125 L 35.515625 26.03125 L 36.21875 25.328125 Z M 39.023438 24.625 L 38.324219 25.328125 L 39.023438 26.03125 L 39.726562 25.328125 Z M 37.269531 25.59375 C 36.449219 25.59375 35.78125 26.261719 35.78125 27.082031 C 35.78125 27.902344 36.449219 28.570312 37.269531 28.570312 C 38.09375 28.570312 38.757812 27.902344 38.757812 27.082031 C 38.757812 26.261719 38.09375 25.59375 37.269531 25.59375 Z M 33.800781 26.585938 L 33.800781 27.578125 L 35.285156 27.578125 L 35.285156 26.585938 Z M 39.253906 26.585938 L 39.253906 27.578125 L 40.742188 27.578125 L 40.742188 26.585938 Z M 35.515625 28.132812 L 34.816406 28.835938 L 35.515625 29.535156 L 36.21875 28.835938 Z M 39.023438 28.132812 L 38.324219 28.835938 L 39.023438 29.535156 L 39.726562 28.835938 Z M 36.773438 29.066406 L 36.773438 30.554688 L 37.765625 30.554688 L 37.765625 29.066406 Z M 36.773438 29.066406 "/>
<path style=" stroke:none;fill-rule:nonzero;fill:rgb(40.392157%,55.686275%,90.196078%);fill-opacity:1;" d="M 33.40625 60.539062 L 36.132812 57.8125 L 38.859375 60.539062 L 36.132812 63.265625 Z M 33.40625 60.539062 "/>
<path style=" stroke:none;fill-rule:nonzero;fill:rgb(40.392157%,55.686275%,90.196078%);fill-opacity:1;" d="M 82.617188 61.136719 L 84.097656 59.660156 L 85.574219 61.136719 L 84.097656 62.613281 Z M 82.617188 61.136719 "/>
<path style=" stroke:none;fill-rule:nonzero;fill:rgb(47.058824%,89.803922%,96.470588%);fill-opacity:1;" d="M 99.65625 48.402344 L 102.632812 45.425781 L 105.609375 48.402344 L 102.632812 51.378906 Z M 99.65625 48.402344 "/>
<path style=" stroke:none;fill-rule:nonzero;fill:rgb(96.078431%,45.098039%,53.72549%);fill-opacity:1;" d="M 23.480469 49.347656 L 23.8125 49.683594 L 26.648438 52.519531 L 29.820312 49.347656 L 26.648438 46.179688 Z M 24.816406 49.347656 L 26.648438 47.515625 L 28.484375 49.347656 L 26.648438 51.183594 Z M 24.816406 49.347656 "/>
<path style=" stroke:none;fill-rule:nonzero;fill:rgb(96.470588%,66.666667%,47.058824%);fill-opacity:1;" d="M 16.34375 26.664062 L 19.320312 23.6875 L 22.296875 26.664062 L 19.320312 29.640625 Z M 16.34375 26.664062 "/>
<path style=" stroke:none;fill-rule:nonzero;fill:rgb(47.058824%,89.803922%,96.470588%);fill-opacity:1;" d="M 16.308594 38.347656 L 17.375 37.285156 L 18.4375 38.347656 L 17.375 39.414062 Z M 16.308594 38.347656 "/>
<path style=" stroke:none;fill-rule:nonzero;fill:rgb(96.470588%,45.882353%,52.941176%);fill-opacity:1;" d="M 89.21875 54.949219 L 90.960938 53.207031 L 92.703125 54.949219 L 90.960938 56.691406 Z M 89.21875 54.949219 "/>
<path style=" stroke:none;fill-rule:nonzero;fill:rgb(98.039216%,56.862745%,52.54902%);fill-opacity:1;" d="M 20.40625 10.226562 L 22.132812 8.5 L 23.859375 10.226562 L 22.132812 11.953125 Z M 20.40625 10.226562 "/>
<path style=" stroke:none;fill-rule:nonzero;fill:rgb(96.078431%,45.098039%,53.72549%);fill-opacity:1;" d="M 104.855469 13.648438 L 106.332031 12.167969 L 107.808594 13.648438 L 106.332031 15.125 Z M 104.855469 13.648438 "/>
<path style=" stroke:none;fill-rule:nonzero;fill:rgb(43.921569%,88.235294%,86.666667%);fill-opacity:1;" d="M 25.523438 49.351562 L 26.652344 48.226562 L 27.78125 49.351562 L 26.652344 50.480469 Z M 25.523438 49.351562 "/>
<path style=" stroke:none;fill-rule:nonzero;fill:rgb(40.392157%,42.352941%,90.196078%);fill-opacity:1;" d="M 86.226562 65.398438 L 87.113281 64.507812 L 88.003906 65.398438 L 87.113281 66.285156 Z M 86.226562 65.398438 "/>
<path style=" stroke:none;fill-rule:nonzero;fill:rgb(96.470588%,66.666667%,47.058824%);fill-opacity:1;" d="M 100.996094 20.277344 L 103.160156 18.113281 L 105.328125 20.277344 L 103.160156 22.445312 Z M 100.996094 20.277344 "/>
<path style="fill:none;stroke-width:1;stroke-linecap:round;stroke-linejoin:miter;stroke:rgb(43.921569%,55.686275%,88.235294%);stroke-opacity:1;stroke-miterlimit:4;" d="M -141.34971 -91.707498 L -139.139725 -91.707498 L -139.136802 -89.49459 L -141.34971 -89.497513 Z M -141.34971 -91.707498 " transform="matrix(0.668132,-0.668132,0.668132,0.668132,255.373222,-24.769131)"/>
<path style=" stroke:none;fill-rule:nonzero;fill:rgb(47.058824%,89.803922%,96.470588%);fill-opacity:1;" d="M 73.480469 15.144531 L 74.957031 13.667969 L 76.433594 15.144531 L 74.957031 16.621094 Z M 73.480469 15.144531 "/>
<path style=" stroke:none;fill-rule:nonzero;fill:rgb(47.058824%,89.803922%,96.470588%);fill-opacity:1;" d="M 14.558594 92 L 15.683594 90.871094 L 16.8125 92 L 15.683594 93.128906 Z M 14.558594 92 "/>
<path style=" stroke:none;fill-rule:nonzero;fill:rgb(96.078431%,45.098039%,53.72549%);fill-opacity:1;" d="M 16.933594 100.828125 L 19.035156 98.726562 L 21.132812 100.828125 L 19.035156 102.929688 Z M 16.933594 100.828125 "/>
<path style=" stroke:none;fill-rule:nonzero;fill:rgb(96.078431%,45.098039%,53.72549%);fill-opacity:1;" d="M 108.183594 100.945312 L 111.160156 97.972656 L 114.136719 100.945312 L 111.160156 103.921875 Z M 108.183594 100.945312 "/>
<path style=" stroke:none;fill-rule:nonzero;fill:rgb(40.392157%,55.686275%,90.196078%);fill-opacity:1;" d="M 50.34375 73.753906 L 50.34375 77 L 54.484375 81.558594 L 42.136719 81.558594 L 43.632812 79.0625 L 41.492188 76.921875 L 38.476562 78.730469 C 38.144531 78.5625 37.796875 78.417969 37.441406 78.300781 L 36.589844 74.890625 L 33.566406 74.890625 L 32.710938 78.304688 C 32.351562 78.421875 32.003906 78.5625 31.667969 78.726562 L 28.660156 76.921875 L 26.519531 79.0625 L 28.328125 82.078125 C 28.160156 82.414062 28.015625 82.761719 27.898438 83.117188 L 24.488281 83.964844 L 24.488281 86.992188 L 27.90625 87.84375 C 28.019531 88.203125 28.160156 88.550781 28.328125 88.886719 L 26.523438 91.894531 L 28.660156 94.035156 L 30.496094 92.933594 L 30.496094 99.578125 L 28.773438 99.578125 C 26.40625 99.578125 24.488281 101.5 24.488281 103.863281 L 24.488281 106.238281 C 24.488281 108.605469 26.40625 110.523438 28.773438 110.523438 L 30.496094 110.523438 L 30.496094 112.136719 C 30.496094 113.84375 31.875 115.222656 33.582031 115.222656 L 57.058594 115.222656 L 57.058594 120.332031 L 69.523438 118.253906 L 69.523438 115.222656 L 93 115.222656 C 94.710938 115.222656 96.085938 113.84375 96.085938 112.136719 L 96.085938 96.722656 L 102.457031 96.722656 C 105.480469 96.722656 107.929688 94.277344 107.929688 91.25 C 107.929688 88.226562 105.480469 85.777344 102.457031 85.777344 L 96.085938 85.777344 L 96.085938 84.644531 C 96.085938 82.9375 94.710938 81.558594 93 81.558594 L 88.441406 81.558594 L 88.441406 80.0625 L 84.441406 80.0625 L 84.441406 81.558594 L 81.941406 81.558594 L 81.941406 80.0625 L 77.941406 80.0625 L 77.941406 81.558594 L 70.082031 81.558594 L 74.226562 77 L 74.226562 73.753906 Z M 59.839844 76.414062 L 70.402344 76.414062 C 71.046875 76.40625 71.046875 77.371094 70.402344 77.359375 L 59.839844 77.359375 C 59.199219 77.371094 59.199219 76.40625 59.839844 76.414062 Z M 34.691406 81.800781 C 36.613281 81.800781 38.171875 83.355469 38.171875 85.277344 C 38.171875 87.195312 36.613281 88.753906 34.691406 88.753906 C 32.773438 88.753906 31.214844 87.195312 31.214844 85.277344 C 31.214844 83.355469 32.773438 81.800781 34.691406 81.800781 Z M 34.691406 82.554688 C 33.191406 82.554688 31.96875 83.773438 31.96875 85.277344 C 31.96875 86.78125 33.191406 88 34.691406 88 C 36.195312 88 37.414062 86.78125 37.414062 85.277344 C 37.414062 83.773438 36.195312 82.554688 34.691406 82.554688 Z M 34.691406 83.046875 C 35.925781 83.046875 36.921875 84.042969 36.921875 85.277344 C 36.925781 86.507812 35.925781 87.507812 34.691406 87.507812 C 33.460938 87.507812 32.460938 86.507812 32.460938 85.277344 C 32.460938 84.042969 33.460938 83.046875 34.691406 83.046875 Z M 96.085938 86.722656 L 102.457031 86.722656 C 104.972656 86.722656 106.984375 88.734375 106.984375 91.25 C 106.984375 93.769531 104.972656 95.777344 102.457031 95.777344 L 96.085938 95.777344 L 96.085938 94.773438 C 96.144531 94.777344 96.203125 94.78125 96.265625 94.78125 L 102.402344 94.78125 C 104.351562 94.78125 105.933594 93.199219 105.933594 91.25 C 105.933594 89.304688 104.351562 87.722656 102.402344 87.722656 L 96.265625 87.722656 C 96.203125 87.722656 96.144531 87.726562 96.085938 87.730469 Z M 57.394531 87.574219 L 57.910156 87.648438 L 58.355469 87.664062 L 58.351562 87.707031 L 58.414062 87.71875 L 58.878906 87.78125 L 58.753906 88.71875 L 58.285156 88.652344 L 57.839844 88.589844 L 57.394531 88.589844 L 57.394531 88.574219 L 56.902344 88.554688 L 56.429688 88.535156 L 56.464844 87.59375 L 56.9375 87.609375 L 57.394531 87.628906 Z M 53.480469 88.0625 L 53.8125 88.949219 L 53.375 89.117188 L 52.488281 89.449219 L 52.046875 89.617188 L 51.710938 88.730469 L 52.15625 88.5625 L 53.039062 88.230469 Z M 61.679688 88.328125 L 62.144531 88.414062 L 63.078125 88.582031 L 63.542969 88.664062 L 63.375 89.59375 L 62.910156 89.511719 L 61.980469 89.34375 L 61.511719 89.257812 Z M 96.265625 88.667969 L 102.402344 88.667969 C 103.84375 88.667969 104.988281 89.8125 104.988281 91.25 C 104.988281 92.691406 103.84375 93.835938 102.402344 93.835938 L 96.265625 93.835938 C 96.203125 93.835938 96.144531 93.832031 96.085938 93.828125 L 96.085938 88.675781 C 96.144531 88.671875 96.203125 88.667969 96.265625 88.667969 Z M 66.332031 89.167969 L 66.796875 89.253906 L 67.726562 89.421875 L 68.191406 89.503906 L 68.023438 90.433594 L 67.558594 90.351562 L 66.628906 90.183594 L 66.164062 90.097656 Z M 70.980469 90.007812 L 71.445312 90.09375 L 72.375 90.261719 L 72.839844 90.34375 L 72.671875 91.273438 L 72.207031 91.191406 L 71.277344 91.023438 L 70.8125 90.9375 Z M 49.191406 90.386719 L 49.832031 91.078125 L 49.484375 91.398438 L 49.039062 91.808594 L 49.035156 91.8125 L 48.84375 92.027344 L 48.527344 92.378906 L 47.824219 91.75 L 48.140625 91.394531 L 48.335938 91.175781 L 48.347656 91.160156 L 48.367188 91.144531 L 48.84375 90.703125 Z M 75.628906 90.851562 L 76.09375 90.933594 L 77.023438 91.101562 L 77.488281 91.1875 L 77.320312 92.117188 L 76.855469 92.03125 L 75.925781 91.863281 L 75.460938 91.777344 Z M 56.414062 91.363281 L 58.722656 91.566406 L 59.140625 94.222656 C 59.402344 94.335938 59.65625 94.46875 59.902344 94.621094 L 62.320312 93.445312 L 63.808594 95.222656 L 62.226562 97.394531 C 62.332031 97.660156 62.417969 97.933594 62.480469 98.214844 L 65.027344 99.097656 L 64.820312 101.402344 L 62.164062 101.820312 C 62.050781 102.082031 61.917969 102.339844 61.765625 102.582031 L 62.941406 105.003906 L 61.167969 106.488281 L 58.992188 104.910156 C 58.726562 105.015625 58.453125 105.097656 58.171875 105.160156 L 57.292969 107.707031 L 54.984375 107.503906 L 54.566406 104.847656 C 54.304688 104.734375 54.050781 104.601562 53.804688 104.449219 L 51.386719 105.621094 L 49.898438 103.847656 L 51.476562 101.675781 C 51.375 101.410156 51.289062 101.132812 51.226562 100.855469 L 48.679688 99.972656 L 48.886719 97.667969 L 51.542969 97.25 C 51.65625 96.984375 51.789062 96.730469 51.941406 96.488281 L 50.765625 94.066406 L 52.539062 92.578125 L 54.710938 94.160156 C 54.976562 94.054688 55.253906 93.96875 55.535156 93.90625 Z M 80.277344 91.691406 L 80.742188 91.773438 L 81.671875 91.941406 L 82.136719 92.027344 L 81.96875 92.957031 L 81.503906 92.871094 L 80.574219 92.703125 L 80.109375 92.621094 Z M 84.910156 92.515625 L 85.566406 92.609375 L 85.613281 92.617188 L 86.34375 92.796875 L 86.804688 92.910156 L 86.578125 93.828125 L 86.121094 93.714844 L 85.417969 93.542969 L 85.246094 93.519531 L 84.777344 93.453125 Z M 46.179688 94.214844 L 47.035156 94.617188 L 46.832031 95.042969 L 46.683594 95.359375 L 46.503906 95.878906 L 46.34375 96.320312 L 45.453125 96.007812 L 45.613281 95.5625 L 45.804688 95.015625 L 45.8125 94.996094 L 45.824219 94.972656 L 45.980469 94.644531 Z M 89.515625 94.335938 L 90.429688 95.148438 L 90.445312 95.167969 L 90.460938 95.183594 L 90.59375 95.324219 L 90.910156 95.671875 L 90.21875 96.3125 L 89.898438 95.964844 L 89.773438 95.832031 L 89.765625 95.824219 L 89.238281 95.351562 L 88.882812 95.039062 Z M 83.46875 95.886719 L 85.171875 96.039062 L 85.480469 97.996094 C 85.675781 98.082031 85.863281 98.179688 86.042969 98.292969 L 87.832031 97.425781 L 88.925781 98.734375 L 87.761719 100.339844 C 87.839844 100.535156 87.902344 100.738281 87.949219 100.945312 L 89.828125 101.597656 L 89.675781 103.296875 L 87.714844 103.605469 C 87.632812 103.800781 87.535156 103.988281 87.421875 104.167969 L 88.289062 105.957031 L 86.976562 107.054688 L 85.375 105.886719 C 85.175781 105.964844 84.976562 106.027344 84.769531 106.074219 L 84.117188 107.953125 L 82.414062 107.800781 L 82.105469 105.839844 C 81.914062 105.757812 81.726562 105.660156 81.542969 105.546875 L 79.757812 106.414062 L 78.660156 105.105469 L 79.824219 103.5 C 79.75 103.304688 79.6875 103.101562 79.640625 102.894531 L 77.761719 102.242188 L 77.910156 100.542969 L 79.871094 100.230469 C 79.957031 100.039062 80.054688 99.851562 80.167969 99.671875 L 79.300781 97.882812 L 80.609375 96.785156 L 82.210938 97.953125 C 82.410156 97.875 82.613281 97.8125 82.820312 97.765625 Z M 56.894531 97.21875 C 55.679688 97.199219 54.652344 98.121094 54.546875 99.332031 C 54.433594 100.605469 55.375 101.726562 56.648438 101.839844 C 57.921875 101.953125 59.046875 101.011719 59.160156 99.738281 C 59.273438 98.464844 58.332031 97.339844 57.058594 97.226562 C 57.003906 97.222656 56.949219 97.222656 56.894531 97.21875 Z M 92.515625 98.210938 L 92.683594 98.652344 L 92.808594 98.992188 L 92.820312 99.015625 L 92.824219 99.035156 L 92.976562 99.597656 L 93.097656 100.054688 L 92.1875 100.300781 L 92.0625 99.84375 L 91.914062 99.296875 L 91.800781 98.984375 L 91.632812 98.542969 Z M 44.949219 98.933594 L 45.894531 98.96875 L 45.875 99.441406 L 45.863281 99.699219 L 45.90625 100.335938 L 45.933594 100.808594 L 44.992188 100.867188 L 44.960938 100.398438 L 44.921875 99.726562 L 44.921875 99.679688 L 44.929688 99.40625 Z M 83.824219 100.210938 C 82.925781 100.195312 82.171875 100.875 82.089844 101.769531 C 82.007812 102.710938 82.703125 103.539062 83.644531 103.621094 C 84.582031 103.707031 85.414062 103.011719 85.496094 102.070312 C 85.578125 101.128906 84.882812 100.300781 83.945312 100.21875 C 83.90625 100.214844 83.863281 100.210938 83.824219 100.210938 Z M 28.773438 100.523438 L 30.496094 100.523438 L 30.496094 109.578125 L 28.773438 109.578125 C 26.914062 109.578125 25.433594 108.097656 25.433594 106.238281 L 25.433594 103.863281 C 25.433594 102.007812 26.914062 100.523438 28.773438 100.523438 Z M 92.257812 102.933594 L 93.191406 103.066406 L 93.128906 103.535156 L 93.105469 103.691406 L 93.101562 103.714844 L 93.09375 103.738281 L 92.910156 104.5 L 92.796875 104.960938 L 91.878906 104.734375 L 91.988281 104.277344 L 92.171875 103.539062 L 92.1875 103.402344 Z M 46.585938 103.414062 L 46.75 103.855469 L 46.765625 103.902344 L 47.144531 104.664062 L 47.351562 105.089844 L 46.503906 105.507812 L 46.296875 105.082031 L 45.910156 104.296875 L 45.898438 104.277344 L 45.890625 104.253906 L 45.867188 104.191406 L 45.699219 103.75 Z M 33.925781 104.003906 L 38.804688 104.003906 C 39.304688 104.003906 39.707031 104.410156 39.707031 104.910156 C 39.707031 105.410156 39.304688 105.8125 38.804688 105.8125 L 33.925781 105.8125 C 33.421875 105.8125 33.019531 105.410156 33.019531 104.910156 C 33.019531 104.410156 33.421875 104.003906 33.925781 104.003906 Z M 33.925781 106.8125 L 38.804688 106.8125 C 39.304688 106.8125 39.707031 107.214844 39.707031 107.714844 C 39.707031 108.21875 39.304688 108.621094 38.804688 108.621094 L 33.925781 108.621094 C 33.421875 108.621094 33.019531 108.21875 33.019531 107.714844 C 33.019531 107.214844 33.421875 106.8125 33.925781 106.8125 Z M 90.65625 107.035156 L 91.359375 107.664062 L 91.042969 108.015625 L 90.5625 108.554688 L 90.53125 108.585938 L 90.363281 108.738281 L 90.019531 109.058594 L 89.378906 108.363281 L 89.722656 108.042969 L 89.871094 107.90625 L 90.339844 107.386719 Z M 48.960938 107.199219 L 49.3125 107.515625 L 49.925781 108.066406 L 49.984375 108.109375 L 50.367188 108.390625 L 49.808594 109.152344 L 49.425781 108.871094 L 49.351562 108.816406 L 49.335938 108.804688 L 49.316406 108.789062 L 48.679688 108.21875 L 48.332031 107.902344 Z M 33.925781 109.617188 L 38.804688 109.617188 C 39.304688 109.617188 39.707031 110.023438 39.707031 110.523438 C 39.707031 111.023438 39.304688 111.429688 38.804688 111.429688 L 33.925781 111.429688 C 33.421875 111.429688 33.019531 111.023438 33.019531 110.523438 C 33.019531 110.023438 33.421875 109.617188 33.925781 109.617188 Z M 52.707031 109.714844 L 53.152344 109.871094 L 53.675781 110.054688 L 53.683594 110.058594 L 54.007812 110.136719 L 54.464844 110.25 L 54.242188 111.167969 L 53.785156 111.054688 L 53.449219 110.976562 L 53.402344 110.960938 L 52.835938 110.761719 L 52.390625 110.601562 Z M 87.140625 109.769531 L 87.472656 110.652344 L 87.03125 110.816406 L 86.71875 110.9375 L 86.699219 110.941406 L 86.679688 110.949219 L 86.085938 111.109375 L 85.628906 111.230469 L 85.382812 110.320312 L 85.839844 110.195312 L 86.414062 110.042969 L 86.699219 109.933594 Z M 82.675781 110.417969 L 82.679688 111.363281 L 82.207031 111.363281 L 81.261719 111.367188 L 80.789062 111.367188 L 80.785156 110.421875 L 81.257812 110.421875 L 82.203125 110.417969 Z M 77.480469 110.429688 L 77.953125 110.429688 L 77.957031 111.375 L 76.539062 111.375 L 76.066406 111.378906 L 76.0625 110.433594 L 76.535156 110.429688 Z M 72.753906 110.441406 L 73.226562 110.441406 L 73.230469 111.382812 L 72.757812 111.382812 L 71.816406 111.386719 L 71.34375 111.386719 L 71.339844 110.445312 L 71.8125 110.441406 Z M 68.503906 110.449219 L 68.507812 111.394531 L 68.035156 111.394531 L 67.089844 111.398438 L 66.617188 111.398438 L 66.613281 110.453125 L 68.03125 110.453125 Z M 63.777344 110.460938 L 63.78125 111.40625 L 63.308594 111.40625 L 62.363281 111.410156 L 61.894531 111.410156 L 61.890625 110.464844 L 62.363281 110.464844 L 63.308594 110.460938 Z M 58.582031 110.472656 L 59.054688 110.472656 L 59.058594 111.417969 L 57.875 111.417969 L 57.660156 111.429688 L 57.1875 111.453125 L 57.148438 110.507812 L 57.617188 110.484375 L 57.851562 110.476562 L 57.859375 110.472656 Z M 58.21875 115.203125 L 59.164062 115.203125 L 59.164062 118.121094 L 58.21875 118.121094 Z M 58.21875 115.203125 "/>
<path style=" stroke:none;fill-rule:nonzero;fill:rgb(47.058824%,89.803922%,96.470588%);fill-opacity:1;" d="M 35.929688 85.261719 C 35.929688 85.96875 35.355469 86.542969 34.648438 86.542969 C 33.941406 86.542969 33.367188 85.96875 33.367188 85.261719 C 33.367188 84.554688 33.941406 83.980469 34.648438 83.980469 C 35.355469 83.980469 35.929688 84.554688 35.929688 85.261719 Z M 35.929688 85.261719 "/>
<path style=" stroke:none;fill-rule:nonzero;fill:rgb(96.078431%,45.098039%,53.72549%);fill-opacity:1;" d="M 56.890625 95.191406 C 54.5 95.191406 52.550781 97.144531 52.550781 99.535156 C 52.550781 101.925781 54.5 103.871094 56.890625 103.871094 C 59.28125 103.871094 61.230469 101.925781 61.230469 99.535156 C 61.230469 97.144531 59.28125 95.191406 56.890625 95.191406 Z M 56.890625 96.136719 C 58.769531 96.136719 60.285156 97.652344 60.285156 99.535156 C 60.285156 101.414062 58.769531 102.925781 56.890625 102.925781 C 55.011719 102.925781 53.496094 101.414062 53.496094 99.535156 C 53.496094 97.652344 55.011719 96.136719 56.890625 96.136719 Z M 56.890625 96.136719 "/>
<path style=" stroke:none;fill-rule:nonzero;fill:rgb(40.392157%,55.686275%,90.196078%);fill-opacity:1;" d="M 68.4375 135.226562 C 67.074219 135.226562 65.976562 136.324219 65.976562 137.6875 L 65.976562 141.378906 C 65.976562 142.742188 67.074219 143.839844 68.4375 143.839844 L 72.128906 143.839844 C 73.492188 143.839844 74.589844 142.742188 74.589844 141.378906 L 74.589844 137.6875 C 74.589844 136.324219 73.492188 135.226562 72.128906 135.226562 Z M 67.824219 138.304688 C 68.164062 138.304688 68.4375 138.578125 68.4375 138.917969 L 68.4375 140.148438 C 68.4375 140.488281 68.164062 140.765625 67.824219 140.765625 C 67.480469 140.765625 67.207031 140.488281 67.207031 140.148438 L 67.207031 138.917969 C 67.207031 138.578125 67.480469 138.304688 67.824219 138.304688 Z M 72.742188 138.304688 C 73.085938 138.304688 73.359375 138.578125 73.359375 138.917969 L 73.359375 140.148438 C 73.359375 140.488281 73.085938 140.765625 72.742188 140.765625 C 72.402344 140.765625 72.128906 140.488281 72.128906 140.148438 L 72.128906 138.917969 C 72.128906 138.578125 72.402344 138.304688 72.742188 138.304688 Z M 71.582031 141.445312 C 71.835938 141.4375 72.066406 141.589844 72.164062 141.824219 C 72.261719 142.058594 72.207031 142.328125 72.023438 142.503906 C 71.5625 142.964844 70.9375 143.226562 70.285156 143.226562 C 69.628906 143.226562 69.003906 142.964844 68.542969 142.503906 C 68.363281 142.328125 68.308594 142.0625 68.402344 141.832031 C 68.496094 141.597656 68.722656 141.449219 68.972656 141.449219 C 69.136719 141.449219 69.296875 141.515625 69.414062 141.632812 C 69.644531 141.863281 69.957031 141.996094 70.285156 141.996094 C 70.609375 141.996094 70.921875 141.863281 71.152344 141.632812 C 71.265625 141.515625 71.417969 141.449219 71.582031 141.445312 Z M 71.582031 141.445312 "/>
<path style=" stroke:none;fill-rule:nonzero;fill:rgb(47.058824%,89.803922%,96.470588%);fill-opacity:1;" d="M 33.222656 134.179688 C 33.050781 134.175781 32.894531 134.265625 32.808594 134.414062 C 32.722656 134.558594 32.722656 134.742188 32.808594 134.890625 C 32.894531 135.035156 33.050781 135.125 33.222656 135.125 L 36.964844 135.125 C 37.136719 135.125 37.296875 135.035156 37.382812 134.890625 C 37.46875 134.742188 37.46875 134.558594 37.382812 134.414062 C 37.296875 134.265625 37.136719 134.175781 36.964844 134.179688 Z M 33.222656 134.179688 "/>
<path style=" stroke:none;fill-rule:nonzero;fill:url(#linear10);" d="M 41.652344 126.921875 C 41.390625 126.925781 41.183594 127.140625 41.183594 127.398438 L 41.183594 129.960938 C 41.183594 130.128906 41.273438 130.289062 41.417969 130.375 C 41.566406 130.460938 41.75 130.460938 41.894531 130.375 C 42.042969 130.289062 42.132812 130.128906 42.128906 129.960938 L 42.128906 127.398438 C 42.132812 127.273438 42.082031 127.148438 41.992188 127.058594 C 41.902344 126.96875 41.777344 126.921875 41.652344 126.921875 Z M 41.652344 126.921875 "/>
<path style=" stroke:none;fill-rule:nonzero;fill:rgb(96.078431%,45.490196%,52.941176%);fill-opacity:1;" d="M 41.652344 120.328125 C 41.390625 120.332031 41.183594 120.542969 41.183594 120.804688 L 41.183594 125.550781 C 41.183594 125.722656 41.273438 125.878906 41.417969 125.964844 C 41.566406 126.050781 41.75 126.050781 41.894531 125.964844 C 42.042969 125.878906 42.132812 125.722656 42.128906 125.550781 L 42.128906 120.804688 C 42.132812 120.675781 42.082031 120.554688 41.992188 120.464844 C 41.902344 120.375 41.777344 120.324219 41.652344 120.328125 Z M 41.652344 120.328125 "/>
<path style=" stroke:none;fill-rule:nonzero;fill:rgb(96.078431%,45.098039%,53.72549%);fill-opacity:1;" d="M 30.785156 134.179688 C 30.613281 134.175781 30.457031 134.265625 30.371094 134.414062 C 30.285156 134.558594 30.285156 134.742188 30.371094 134.890625 C 30.457031 135.035156 30.613281 135.125 30.785156 135.125 L 31.5 135.125 C 31.667969 135.125 31.828125 135.035156 31.914062 134.890625 C 32 134.742188 32 134.558594 31.914062 134.414062 C 31.828125 134.265625 31.667969 134.175781 31.5 134.179688 Z M 30.785156 134.179688 "/>
<path style=" stroke:none;fill-rule:nonzero;fill:rgb(40.392157%,55.686275%,90.196078%);fill-opacity:1;" d="M 34.316406 129.964844 C 34.109375 129.976562 33.933594 130.128906 33.886719 130.332031 C 33.839844 130.535156 33.933594 130.746094 34.117188 130.847656 L 37.359375 132.71875 C 37.507812 132.8125 37.691406 132.816406 37.84375 132.734375 C 37.992188 132.648438 38.085938 132.488281 38.085938 132.316406 C 38.082031 132.140625 37.984375 131.984375 37.832031 131.902344 L 34.589844 130.03125 C 34.507812 129.980469 34.414062 129.960938 34.316406 129.964844 Z M 34.316406 129.964844 "/>
<path style=" stroke:none;fill-rule:nonzero;fill:rgb(47.058824%,89.803922%,96.470588%);fill-opacity:1;" d="M 29.601562 127.242188 C 29.394531 127.257812 29.21875 127.40625 29.171875 127.609375 C 29.125 127.816406 29.21875 128.023438 29.402344 128.128906 L 32.050781 129.65625 C 32.199219 129.75 32.382812 129.753906 32.535156 129.671875 C 32.6875 129.585938 32.777344 129.425781 32.777344 129.25 C 32.773438 129.078125 32.679688 128.921875 32.523438 128.839844 L 29.875 127.308594 C 29.792969 127.261719 29.699219 127.238281 29.601562 127.242188 Z M 29.601562 127.242188 "/>
<path style=" stroke:none;fill-rule:nonzero;fill:rgb(40.392157%,55.686275%,90.196078%);fill-opacity:1;" d="M 38.757812 129.191406 C 38.59375 129.195312 38.441406 129.289062 38.363281 129.4375 C 38.28125 129.582031 38.285156 129.761719 38.371094 129.902344 L 38.898438 130.820312 C 38.980469 130.972656 39.136719 131.070312 39.3125 131.070312 C 39.484375 131.074219 39.644531 130.980469 39.730469 130.832031 C 39.8125 130.679688 39.808594 130.492188 39.71875 130.347656 L 39.1875 129.433594 C 39.101562 129.277344 38.9375 129.183594 38.757812 129.191406 Z M 38.757812 129.191406 "/>
<path style=" stroke:none;fill-rule:nonzero;fill:url(#linear11);" d="M 35.472656 123.484375 C 35.304688 123.488281 35.152344 123.582031 35.074219 123.730469 C 34.996094 123.875 34.996094 124.054688 35.082031 124.195312 L 37.457031 128.308594 C 37.539062 128.460938 37.695312 128.558594 37.867188 128.558594 C 38.042969 128.5625 38.203125 128.46875 38.285156 128.316406 C 38.371094 128.167969 38.367188 127.980469 38.273438 127.835938 L 35.902344 123.722656 C 35.8125 123.570312 35.648438 123.476562 35.472656 123.484375 Z M 35.472656 123.484375 "/>
<path style=" stroke:none;fill-rule:nonzero;fill:url(#linear12);" d="M 37.492188 136.363281 C 37.417969 136.363281 37.347656 136.382812 37.28125 136.417969 L 30.253906 140.097656 C 30.09375 140.167969 29.988281 140.324219 29.976562 140.5 C 29.964844 140.671875 30.054688 140.839844 30.203125 140.929688 C 30.351562 141.023438 30.539062 141.023438 30.691406 140.933594 L 37.71875 137.253906 C 37.914062 137.15625 38.015625 136.933594 37.960938 136.71875 C 37.90625 136.503906 37.714844 136.355469 37.492188 136.363281 Z M 37.492188 136.363281 "/>
<path style=" stroke:none;fill-rule:nonzero;fill:rgb(98.039216%,58.039216%,52.54902%);fill-opacity:1;" d="M 93.183594 135.226562 C 91.820312 135.226562 90.722656 136.324219 90.722656 137.6875 L 90.722656 141.378906 C 90.722656 142.742188 91.820312 143.839844 93.183594 143.839844 L 96.875 143.839844 C 98.238281 143.839844 99.335938 142.742188 99.335938 141.378906 L 99.335938 137.6875 C 99.335938 136.324219 98.238281 135.226562 96.875 135.226562 Z M 92.570312 138.304688 C 92.910156 138.304688 93.183594 138.578125 93.183594 138.917969 L 93.183594 140.148438 C 93.183594 140.488281 92.910156 140.765625 92.570312 140.765625 C 92.226562 140.765625 91.953125 140.488281 91.953125 140.148438 L 91.953125 138.917969 C 91.953125 138.578125 92.226562 138.304688 92.570312 138.304688 Z M 97.492188 138.304688 C 97.832031 138.304688 98.105469 138.578125 98.105469 138.917969 L 98.105469 140.148438 C 98.105469 140.488281 97.832031 140.765625 97.492188 140.765625 C 97.148438 140.765625 96.875 140.488281 96.875 140.148438 L 96.875 138.917969 C 96.875 138.578125 97.148438 138.304688 97.492188 138.304688 Z M 96.328125 141.445312 C 96.582031 141.4375 96.8125 141.589844 96.910156 141.824219 C 97.007812 142.058594 96.953125 142.328125 96.769531 142.503906 C 96.308594 142.964844 95.683594 143.226562 95.03125 143.226562 C 94.378906 143.226562 93.75 142.964844 93.289062 142.503906 C 93.109375 142.328125 93.054688 142.0625 93.148438 141.832031 C 93.242188 141.597656 93.46875 141.449219 93.71875 141.449219 C 93.886719 141.449219 94.042969 141.515625 94.160156 141.632812 C 94.390625 141.863281 94.703125 141.996094 95.03125 141.996094 C 95.355469 141.996094 95.667969 141.863281 95.898438 141.632812 C 96.011719 141.515625 96.167969 141.449219 96.328125 141.445312 Z M 96.328125 141.445312 "/>
</g>
</svg>
